<svg id="Layer_1" data-name="Layer 1" xmlns="http://www.w3.org/2000/svg" viewBox="0 0 333.92 331.26"><title>buildings</title><path d="M711,287.75c0-33.1.06-66.19-.1-99.29,0-3.25.93-3.53,3.76-3.53Q879.33,185,1044,185q0,43.73-.09,87.45c0,2-.24,4-.37,5.95-1.55-.63-3.18-.37-4.79-.4h0c-.63-1.93,1.64-5.63-3.09-5l-4.4-.14a1.11,1.11,0,0,0-1.3.76c-.57,1.51,1,4.3-2.16,4.23s-3.27,1.68-3.26,4.05c0,9.2-.1,18.41-.16,27.61-1.46-.88.41-3.47-2-3.88,0-5-.14-10-.13-15,0-2.07-.66-3.12-2.88-2.5-2.61-1.25-1.61-3.64-1.68-5.61-.07-2.15-.62-3.41-3.06-2.82-2.45-.08-5.32-1.28-5.22,3.23.12,5.57-.09,5.58-5.78,5.42,0-6.18-.2-12.36-.1-18.53,0-2.84-.73-4.33-3.83-3.58-1,0-2.32-.4-2.62.8-.81,3.29-3.49,5.9-2.72,9.88.68,3.49.14,7.21.13,10.84l-.84.67-5.88-.15c-.44-1.87,1.22-4.65-1.49-5.47-2.32-.7-2.47-2-2.38-3.82.17-3.31-1.07-4.71-4.41-3.35-5.29-.09-5.28-.09-5.3,5,0,1.85-.07,3.69-.11,5.53l-2.11,0c-3.21-.08-2-2.77-2.55-4.38.08-5.92.08-11.84.29-17.75.1-2.89-1.1-3.82-3.78-3.29-3.23-1.16-4.65-.13-4.45,3.4.14,2.33.78,5.49-.42,6.86-2.2,2.51-1.58,5-1.67,7.6-.13,3.84,0,7.69-.1,11.54,0,1.66.66,3.5-.78,5-.49-2.76.65-5.66-.68-8.35.61-5.89-2-11.32-2-17.51-1.64,1.41-.22,3.77-2.31,4.07-3,.42-.91-3.18-3.08-4-.15,1.58-.22,3-.42,4.42s0,3.11-2,3.56c-1.14-1.26-.78-2.82-.79-4.28,0-9.81-.17-19.63.08-29.44.06-2.46-2.11-3.17-2.54-5-.89.48-.78,2-2.14,2l-4.43-.15c1.39-1.1,1.1-2.14.2-3.5-1.7-2.61-3.75-4.94-5.63-7.41-8-10.45-18.57-17.2-30.84-21.36-13.65-4.62-27.49-3.89-41.26-.45a50,50,0,0,0-18.35,8.9c-2,1.53-2.59,3.51.07,4.6a81.74,81.74,0,0,0,12.75,4.13c6.51,1.49,13.13,2.48,19.2,5.48,3.94,1.94,5.92,1.55,8.39-1.64a4.63,4.63,0,0,1-1.4,4.73c-2.51,2.26-3,5.18-3,8.44.08,12.19-.06,24.37,0,36.56,0,2.48-.67,3.88-3.36,3.49-2.86-.43-3.82,1-3.7,3.6l-2.46-.13q-.17-11.18-.36-22.35c0-1.22.46-2.78-.58-3.55-2-1.46-1.66-3.41-1.68-5.36,0-1.74,0-3.48,0-5.21-.09-2.64-1.17-1.45-2.15-.52-6.64,4.25-10.87,9.74-9.87,18.19.23,2,.5,4.23-.76,6.15l-6.68,6.21c-1.17-1.39-.83-3.08-.68-4.6.36-3.59-1-5.06-4.59-4.42h0c-.73-2.07,1.86-6-3.12-5.73l-3.57-.06-.88,0-1.39,0c-1.44-.2-1.16.56-.78,1.38a5.08,5.08,0,0,0-.07.67A36.78,36.78,0,0,0,827,266c-1.85,0-2.6-.61-2.73-2.59-.18-2.63,1.49-6.2-1-7.66-2.06-1.22-5.33-.44-8.07-.48a29.76,29.76,0,0,0-3,.26c-1.22-1-2.78-2-3-3.65-.27-2.48-2.3-3.75-3.33-5.7-.6-1.15-1.84-1.57-2.53,0-1.6,3.63-2.68,7.5-5.37,10.63-.58.68-.26,2.16-.28,3.28-.07,4.35-.11,8.7-.16,13.06-2.1.22-4.59-.23-4.29,3.32.1,1.16-1.28.7-2.07.75-.74-2.91-2-5.81-2.09-8.74-.09-3.82-1.69-4.42-4.81-3.57-1.57-.16-3.57-.77-3.89,1.51a23.33,23.33,0,0,1-5.74,12.23,3.51,3.51,0,0,1-1.74-3.45c0-2-1.46-2.08-2.84-2.09s-2.12.6-2.38,2.21a38.28,38.28,0,0,1-1.91,5.87,5.61,5.61,0,0,0-3.86-.92h0c-.85-2,1.92-6-3.12-5.67a3.77,3.77,0,0,0-2.89.25c-.36.3-1,.62-1,.91.14,3.84-1.56,3.73-4.45,2.47-5.67-2.46-5.7-2.34-5.78,3.93,0,1.72.73,3.92-2.11,4.3l-1.24,0,0-1.52a25.25,25.25,0,0,0,0-8.54c.61-2-.56-2.91-2.24-3.46l.22-3.28h-.5l.17,3.28c-1.19,0-1.79.49-2.56,1.56-2.44,3.4-1.09,7.15-1.5,10.72-.17,1.43.87,3.37-1.47,4,0-2.09-.11-4.19-.15-6.29,0-1.89-1.08-2.57-2.86-2.55s-2.26,1.1-2.23,2.67.26,3.51-1.51,4.65c-1.18-.59-3.11.76-3.68-1.41a1.06,1.06,0,0,0,0-1.56c-.1-.82-.39-1.49-1.37-1.41s-1,.93-1.06,1.67c0,1.35-.19,2.55-2,2.47-1.6-.07-1.64-1.21-1.68-2.38,0-.92-.17-1.8-1.39-1.77a1.26,1.26,0,0,0-1.28,1.5C714.55,287.37,712.82,287.58,711,287.75Z" transform="translate(-710.9 -184.93)" style="fill:#80d1e3"/><path d="M1022.4,305.6c2.39.41.52,3,2,3.88.08,1.89-.06,4.1,2.72,3.92s1.39-2.63,1.76-4.09a11.43,11.43,0,0,0,.08-1.86c.09-1.25.89-1.7,2-1.69s2.36.07,2.49,1.6a33.34,33.34,0,0,1,.1,4.12c-.07,2,1,2.63,2.83,2.41,1.2,0,2.9.61,3.4-.65,1.43-3.53,2.66-.75,4-.08,0,7.87-.08,15.74.18,23.6.09,2.93-.89,178.44-3.59,178.44q-121.22-.12-242.45-.08-43.47,0-86.93.13V318.5c1.63,0,3-.29,3-2.4,0-1.9,1.33-2.17,2.83-2.12s3-.14,3.1,1.83c.13,1.82.87,2.66,2.78,2.7,2.12,0,3.25-.61,3.38-2.91.09-1.74,1.64-1.58,2.87-1.59s2.72-.16,2.92,1.57c.35,3.21,5.13,3.72,4.5,7.57-.08.5,1.25.6,2,.62,1.37,0,2.75,0,4.12,0,2.29.12,4-.33,3.81-3.19-.09-1.63,1.06-2.08,2.48-2.07,2,0,4,0,6,0,1,0,2.44,0,2.45-1.16,0-3.58,2.46-3.44,4.87-3.52l2-.18c4.07.11,8.14.18,12.2.36,2.26.1,3.1-.92,3-3.1-.07-3.45,0-6.91,0-10.37,4-.33,5.09-2.64,4.45-6.26a9.6,9.6,0,0,1,0-1.85c2.44-1.07,2.82-4.7,6-4.85,2.49,3,5.5,5.79,4.57,10.35-.08.39.29,1.23.55,1.27,3.84.59,3,3.52,3.11,6,0,.83-.24,1.9.79,2.27s1.67-.34,2.3-.92c2.48-2.24,4.91-4.53,7.36-6.8l3-2.35c1.09,1.28.76,2.83.77,4.3,0,8,0,15.94,0,23.91a18.27,18.27,0,0,0,.22,3,1.13,1.13,0,0,0,1.4.92c.41-.08,1.09-.55,1.07-.8-.18-2.24,1.87-3.36,2.49-5.16.29-.83.31-1.79,1.48-1.84s1.38.83,1.55,1.72.3,1.59,1.3,1.46.87-1.05,1.09-1.74c.7-2.12,2.79-2.16,3.1-.63.57,2.71,3.94,3.18,4,6.31,0,1,2.32,2.8,3.64,4.09s3.18.88,3.34-1.57a33.07,33.07,0,0,0,0-6c-.42-3.57.91-5.15,4.53-4.65,2.7-.66,1.06-2.94,1.65-4.39C849,316,849,316,849,321.69a14.15,14.15,0,0,0,.1,2.61c.36,1.65,1.21,2.16,2.58.81,3-3,8.75-3.11,11.7-.1,1.24,1.26,1.81.54,1.93-.64.28-2.81-.74-6.29,3.94-6.43.22,0,.58-.81.6-1.26.08-1.78.77-2.72,2.73-2.73s3.39.32,3.58,2.7c.11,1.35,1.26,1.74,2.48,1.76s2.73.11,2.84-1.16c.35-4.14,3.34-3.13,5.77-3.29,1.24,1.11-.06,3.49,1.42,4,2.37.81,2.46,2.4,2.48,4.32a1.41,1.41,0,0,0,1.37,1.49c2.37,0,4.74,0,7.11,0,1,0,2.39-.1,2.36-1.29-.14-4.93,3.33-3.87,6.17-3.93,2.51-.06,5.38.76,5.62-3.42.09-1.54,2-1.13,3.18-1.14,5.11,0,10.23-.12,15.34,0,3.13.1,4.11-1.15,3.32-4l-.12-1.48c-.69-7.28-.69-7.28,6.45-7.29,4.63,0,4.63,0,4.54-5.93.61-2.75-.62-5.68.82-8.35l10.51-.08c1.33,2.69.19,5.59.68,8.35l.08,14.19c0,3.35-.13,6.71-.07,10.06,0,1.09-.64,3,1.13,3,1.44,0,1-1.75,1-2.76-.06-2.18.4-3.69,3-3.52,1.79.11,2.37-1,2.32-2.61,0-1.36-.06-2.73-.08-4.09,0-2.62.07-5.23.08-7.84,0-5,0-5,5.17-5.05h1l4.3-.15,7.53.26a2.88,2.88,0,0,0,.64.17c0,3.29.08,6.59.08,9.88,0,1.61.18,3,2.33,2.78,1.64.32,4.53-.9,4.31,2-.38,5.16,2.71,5,6.11,4.69s6.12,0,5.37,4.59a1.71,1.71,0,0,0,.87,1.93c1.82.79,1.93,2.31,2.1,4,.33,3.48,3.14,1.93,5,2.2s3.24-.17,3.21-2.49c-.05-3.25,0-6.49,0-9.73,0-1.34.18-2.77,1.86-2.66,3.73.24,3.6-2.09,3.35-4.62C1019.06,307.15,1019.47,305.32,1022.4,305.6Z" transform="translate(-710.9 -184.93)" style="fill:#085a7f"/><path d="M762.1,313.85c-2.41.08-4.84-.06-4.87,3.52,0,1.19-1.45,1.14-2.45,1.16-2,0-4,0-6,0-1.42,0-2.57.44-2.48,2.07.15,2.86-1.52,3.31-3.81,3.19-1.37-.07-2.75,0-4.12,0-.74,0-2.07-.12-2-.62.63-3.85-4.15-4.36-4.5-7.57-.2-1.73-1.68-1.57-2.92-1.57s-2.78-.15-2.87,1.59c-.13,2.3-1.26,2.95-3.38,2.91-1.91,0-2.65-.88-2.78-2.7-.13-2-1.73-1.78-3.1-1.83s-2.83.22-2.83,2.12c0,2.11-1.38,2.39-3,2.4V287.75c1.82-.17,3.55-.38,3.31-2.94a1.26,1.26,0,0,1,1.28-1.5c1.22,0,1.36.85,1.39,1.77,0,1.17.08,2.31,1.68,2.38,1.81.08,2-1.12,2-2.47,0-.74,0-1.57,1.06-1.67s1.27.59,1.37,1.41v1.56c.57,2.17,2.5.82,3.68,1.41.53,2-1.74,5.55,2.86,5.46v16.4l1.33.07c-.13-3.15,2.65-5.2,2.78-8.33.06-1.32.79-2.92,2.46-2.81s2.44,1.57,2.48,3.23c.08,3,2.56,5,2.79,8l1.08-.2V294.67l.07-8.22c2.84-.38,2.09-2.58,2.11-4.3.08-6.27.11-6.39,5.78-3.93,2.89,1.26,4.59,1.37,4.45-2.47,0-.29.66-.61,1-.91.62,4.31-1,9.24,3.49,12.51.28.21.21.95.24,1.44C760.25,297.17,758.14,305.8,762.1,313.85Z" transform="translate(-710.9 -184.93)" style="fill:#017baf"/><path d="M711,515.25q43.47-.07,86.93-.13,121.23,0,242.45.08c2.7,0,3.68-175.51,3.59-178.44-.26-7.86-.15-15.73-.18-23.6l0-15.53q-.12-9.61-.22-19.23c.13-2,.36-4,.37-5.95q.08-43.72.09-87.45c1.2-.26.73.67.73,1.13,0,51,0,277,.07,328,0,1.61-.31,2.22-1.93,1.89a8.23,8.23,0,0,0-1.49,0q-163.5,0-327,0C713.28,516,711.83,516.82,711,515.25Z" transform="translate(-710.9 -184.93)" style="fill:#97d6e6"/><path d="M882.78,229.26c-2.47,3.19-4.45,3.58-8.39,1.64-6.07-3-12.69-4-19.2-5.48a81.74,81.74,0,0,1-12.75-4.13c-2.66-1.09-2.07-3.07-.07-4.6a50,50,0,0,1,18.35-8.9c13.77-3.44,27.61-4.17,41.26.45,12.27,4.16,22.84,10.91,30.84,21.36,1.88,2.47,3.93,4.8,5.63,7.41.9,1.36,1.19,2.4-.2,3.5-1.17,2.41-.25,5-.69,7.51a53.62,53.62,0,0,1-20.18-4.55c-.2-1.18.07-2.85-1.68-2.85-2.55,0-5.21-1-7.65.59-3,.1-6.12.34-8.85-1.46v-2.13l-.54-.86c-1.33-1.22-1.93-3.18-3.85-3.8-.77-1.92,1.49-5.13-2.45-5.69l-.07-.18c.2-1.14.15-2.13-1.39-2.16l-.1-.07c-.27-3-3.33-5.19-2.55-8.51-.16,2-.32,3.93-.47,5.89a1.29,1.29,0,0,0-.58.16l-.66.85C885.93,225.66,883.48,226.91,882.78,229.26Z" transform="translate(-710.9 -184.93)" style="fill:#97d6e6"/><path d="M937.56,248c.44-2.49-.48-5.1.69-7.51l4.43.15c0,16.92.11,33.84,0,50.76,0,2.9.87,4.22,3.82,3.86.09,5.93.09,5.93-4.54,5.93-7.14,0-7.14,0-6.45,7.29l.12,1.48c-1.16-.24-1.14-1.19-1.14-2,0-2.46-2-2.18-3.46-2.43-2-.34-1.72,1.21-1.85,2.4-.08.83.06,2-1.17,1.92s-1-1.23-1.09-2.06c-.15-1.92-1.5-2-2.94-2s-2.83,0-3,1.92c-.13,1.36-.6,2.47-2.23,2.4a2,2,0,0,1-1.9-2.36c0-3.72-1.91-4.62-5.2-4.32-1.32.12-2.7-.56-4-.53-2.53.08-3.23-1.17-3.15-3.45.06-1.65.54-3.62-1.76-4.4q.07-16.94.17-33.87c0-1.32-.61-3.09.76-3.79,1.8-.94,1.69-2.37,1.52-3.78-.34-2.61.65-4.16,3.17-4.8.06-.08.18-.16.17-.24a5.34,5.34,0,0,0-.16-.53c0-2,0-4,0-6,2.57-1.41,3.71-.6,3.68,2.28,0,3.62,0,7.24,0,10.86q0,19.48,0,39c0,1.43-.34,3.33,2,3.19,2-.11,1.79-1.86,1.68-3.15-1-11.09,1.82-22,1.52-33.05-.1-3.87,0-7.75,0-11.62,2.11.81,1.19,2.65,1.39,4.1s-.48,3.06,1.58,3.57l.57.62,0,10.49a6,6,0,0,0,0,5.37,1,1,0,0,0,1,.11c1.3-1.35.47-3.09.77-4.63l5.07.21c.38,4.78,3.5,9,2.46,14.14-.53,2.62-.07,5.45,0,8.18,0,1.12.48,1.93,1.74,2,1,0,1.82-.42,1.84-1.42.06-5.46,0-10.92,0-16.38,0-.34-.23-.89-.46-1-3.2-1-2.14-3.75-2.49-5.91l.12-11.95c0-1.4,0-3.17,1.93-2.89C938,254.83,938.08,251.72,937.56,248Z" transform="translate(-710.9 -184.93)" style="fill:#14a3ce"/><path d="M841.49,320.73c-3.62-.5-5,1.08-4.53,4.65a33.07,33.07,0,0,1,0,6c-.16,2.45-2.1,2.79-3.34,1.57s-3.62-3.07-3.64-4.09c-.08-3.13-3.45-3.6-4-6.31-.31-1.53-2.4-1.49-3.1.63-.22.69-.15,1.62-1.09,1.74s-1.16-.71-1.3-1.46-.39-1.76-1.55-1.72-1.19,1-1.48,1.84c-.62,1.8-2.67,2.92-2.49,5.16,0,.25-.66.72-1.07.8a1.13,1.13,0,0,1-1.4-.92,18.27,18.27,0,0,1-.22-3c0-8,0-15.94,0-23.91,0-1.47.32-3-.77-4.3,1.51-4.7.57-9.51.61-14.27q0-13.42,0-26.84l.14-.78a29.76,29.76,0,0,1,3-.26c2.74,0,6-.74,8.07.48,2.44,1.46.77,5,1,7.66.13,2,.88,2.56,2.73,2.59a36.78,36.78,0,0,1,4.74.67c.38,1.61-1.26,2.76-1.07,4.25,1.24,9.59-.45,19.13-.39,28.7,0,7.88,0,7.95,7.85,8.38,2.34.13,3.42,1,3.37,3.38C841.4,314.5,841.47,317.62,841.49,320.73Z" transform="translate(-710.9 -184.93)" style="fill:#017baf"/><path d="M887.2,222.4a1.29,1.29,0,0,1,.58-.16c1,.9,1.19,2.69,3,2.62l.1.07c.09,1,.3,1.84,1.39,2.16l.07.18c.88,1.87-1.58,5.17,2.45,5.69,1.92.62,2.52,2.58,3.85,3.8,0,.25-.11.49-.17.74-3.06-.07-4.35.69-4.48,4.47-.19,5.46,1.21,10.74.8,16.17-.29,3.84.08,7.74-.1,11.59-.14,3,1,4.2,3.91,3.68a99.49,99.49,0,0,1,0,15l-6.22.07c-5.9,0-5.91,0-5.91,5.77,0,1.49,0,3,0,4.47,0,5.59,0,5.59,5.84,5.37q.1,9.83.2,19.63a1.41,1.41,0,0,1-1.37-1.49c0-1.92-.11-3.51-2.48-4.32-1.48-.51-.18-2.89-1.42-4,.12-2.24-.95-3.15-3.17-3-1.61.11-3.24-.11-4.85,0-2.42.17-3.36-.82-3.29-3.25.12-4.23,0-8.47,0-12.7,0-1,.28-2.64-.53-2.77-3.8-.58-2.79-4.1-4.12-6.15-.12-2.59.84-4,3.7-3.6,2.69.39,3.37-1,3.36-3.49-.06-12.19.08-24.37,0-36.56,0-3.26.48-6.18,3-8.44a4.63,4.63,0,0,0,1.4-4.73c.7-2.35,3.15-3.6,3.76-6Z" transform="translate(-710.9 -184.93)" style="fill:#14a3ce"/><path d="M871.33,286.08c1.33,2.05.32,5.57,4.12,6.15.81.13.53,1.79.53,2.77,0,4.23.11,8.47,0,12.7-.07,2.43.87,3.42,3.29,3.25,1.61-.11,3.24.11,4.85,0,2.22-.14,3.29.77,3.17,3-2.43.16-5.42-.85-5.77,3.29-.11,1.27-1.72,1.18-2.84,1.16s-2.37-.41-2.48-1.76c-.19-2.38-1.61-2.7-3.58-2.7s-2.65.95-2.73,2.73c0,.45-.38,1.25-.6,1.26-4.68.14-3.66,3.62-3.94,6.43-.12,1.18-.69,1.9-1.93.64-2.95-3-8.65-2.92-11.7.1-1.37,1.35-2.22.84-2.58-.81a14.15,14.15,0,0,1-.1-2.61c0-5.7,0-5.7-5.89-5.35q0-12.39-.08-24.77c.19-4.34-.17-8.86,3.72-12.06l6.68-6.21c1,1.31.68,2.86.69,4.32,0,10.06,0,20.13,0,30.19,0,1.15-.41,2.8,1.46,2.87s1.56-1.58,1.57-2.74c0-4.47.11-8.95,0-13.42-.06-2.2.73-3.28,3-3.22.65-.06,1.42-.32,1.36-1-.38-4.41,2.55-4.26,5.52-4.15a13.1,13.1,0,0,0,1.85-.21Z" transform="translate(-710.9 -184.93)" style="fill:#017baf"/><path d="M843.06,291.57q0,12.39.08,24.77c-.59,1.45,1.05,3.73-1.65,4.39,0-3.11-.09-6.23,0-9.35,0-2.38-1-3.25-3.37-3.38-7.85-.43-7.81-.5-7.85-8.38-.06-9.57,1.63-19.11.39-28.7-.19-1.49,1.45-2.64,1.07-4.25a5.08,5.08,0,0,1,.07-.67l.78-1.38,1.39,0,.57.6.31-.56,3.57.06c.73,2.08-1.64,5.84,3.12,5.73h0c-1.49,6.16.53,12.32,0,18.47A2.15,2.15,0,0,0,843.06,291.57Z" transform="translate(-710.9 -184.93)" style="fill:#14a3ce"/><path d="M1036.41,313.89c-1.82.22-2.9-.36-2.83-2.41a33.34,33.34,0,0,0-.1-4.12c-.13-1.53-1.32-1.6-2.49-1.6s-2,.44-2,1.69a11.43,11.43,0,0,1-.08,1.86c-.37,1.46,1.15,3.9-1.76,4.09s-2.64-2-2.72-3.92c0-9.2.16-18.41.15-27.61,0-2.37.11-4.11,3.26-4.05s1.59-2.72,2.15-4.23l1.31-.76,4.4.14c.5,2-1.1,5.3,3.09,5h0v19.46C1037.37,302.85,1039,308.67,1036.41,313.89Z" transform="translate(-710.9 -184.93)" style="fill:#14a3ce"/><path d="M779.31,300.56c0,3.46-.07,6.92,0,10.37.05,2.18-.79,3.2-3,3.1-4.06-.18-8.13-.25-12.2-.36,0-4.3.19-8.61.08-12.9s.66-8.66-.57-12.92c.84-2.19,3-3.94,2.28-6.67a38.28,38.28,0,0,0,1.91-5.87c.26-1.61,1-2.21,2.38-2.21s2.86.09,2.84,2.09a3.51,3.51,0,0,0,1.74,3.45c0,1.18-.41,2.24.27,3.55,1.85,3.57,2.2,7.46,2.07,11.49-.21,6.11-.06,12.23-.06,18.35a31.17,31.17,0,0,0,.79-8.13C777.81,302.6,777.41,301,779.31,300.56Z" transform="translate(-710.9 -184.93)" style="fill:#017baf"/><path d="M1022.4,305.6c-2.93-.28-3.34,1.55-3.21,3.84-1.62,0-3.25.11-4.87,0-2.07-.1-3.48.44-3.27,2.85.31,3.6-2.19,3.1-4.45,3.22-2.92.16-3.19-1.52-3.16-3.79.07-5.74,0-11.48,0-17.22a5.28,5.28,0,0,0-1-3.42c-.88-1.29-.37-2.3,1.15-2.74,5.69.16,5.9.15,5.78-5.42-.1-4.51,2.77-3.31,5.22-3.23,0,2.62,0,5.24.07,7.86,0,1.37-.11,2.85,1.84,3.12s2.72-.78,2.83-2.55c2.22-.62,2.88.43,2.88,2.5C1022.26,295.64,1022.35,300.62,1022.4,305.6Z" transform="translate(-710.9 -184.93)" style="fill:#14a3ce"/><path d="M808.49,299.77c-2.45,2.27-4.88,4.56-7.36,6.8-.63.58-1.39,1.25-2.3.92s-.76-1.44-.79-2.27c-.09-2.48.73-5.41-3.11-6-.26,0-.63-.88-.55-1.27.93-4.56-2.08-7.33-4.57-10.35,1.73-3.29-.42-7.12,1.44-10.39.79,0,2.17.41,2.07-.75-.3-3.55,2.19-3.1,4.29-3.32a25.14,25.14,0,0,0,2.58.29c2.6,0,4.34.23,6.09,3.19,1.85,3.12,1.06,5.9,1.41,8.81C808.26,290.19,806.83,295.06,808.49,299.77Z" transform="translate(-710.9 -184.93)" style="fill:#017baf"/><path d="M958.61,309.39l-.08-14.19c1.44-1.46.73-3.3.78-5,.11-3.85,0-7.7.1-11.54.09-2.58-.53-5.09,1.67-7.6,1.2-1.37.56-4.53.42-6.86-.2-3.53,1.22-4.56,4.45-3.4,0,5.73.13,11.45,0,17.17-.07,2.64.66,4.08,3.5,3.87.58,1.61-.66,4.3,2.55,4.38,0,3.26,0,6.53,0,9.79l-.75.52c-5.15.06-5.15.06-5.17,5.05,0,2.61-.06,5.22-.08,7.84Z" transform="translate(-710.9 -184.93)" style="fill:#14a3ce"/><path d="M984,296.68l-7.53-.26c0-2.44,0-4.89.08-7.33.05-1.74-.52-2.85-2.43-2.87,0-1.84.1-3.68.11-5.53,0-5.12,0-5.12,5.3-5,.43,2.36-1.26,5.73,1.15,6.92,3,1.46,2.45,3.49,2.66,5.75.19,2-1.13,5.24,2.33,5.21,3.64,0,1.46-3.43,2.14-5.24l5.88.15.84-.67c0-3.63.55-7.35-.13-10.84-.77-4,1.91-6.59,2.72-9.88.3-1.2,1.66-.79,2.62-.8a5.09,5.09,0,0,1,.78,3.2c0,8.31-.23,16.62.82,24.89l-8.31.15c-3.61-.62-5,.92-4.57,4.49a22.62,22.62,0,0,1,0,3c-2.78,2.08-.92,5.05-1.46,7.55-2.15.22-2.33-1.17-2.33-2.78,0-3.29-.05-6.59-.08-9.88C984.49,296.48,984.27,296.44,984,296.68Z" transform="translate(-710.9 -184.93)" style="fill:#14a3ce"/><path d="M808.49,299.77c-1.66-4.71-.23-9.58-.8-14.34-.35-2.91.44-5.69-1.41-8.81-1.75-3-3.49-3.19-6.09-3.19a25.14,25.14,0,0,1-2.58-.29c0-4.36.09-8.71.16-13.06,0-1.12-.3-2.6.28-3.28,2.69-3.13,3.77-7,5.37-10.63.69-1.56,1.93-1.14,2.53,0,1,1.95,3.06,3.22,3.33,5.7.18,1.66,1.74,2.62,3,3.65,0,.26-.09.52-.14.78-3.46,0-3.21,2.82-3.23,4.82-.06,6.44.26,12.89.42,19.34.05,1.81.86,2.8,2.77,2.68,0,4.76.9,9.57-.61,14.27Z" transform="translate(-710.9 -184.93)" style="fill:#14a3ce"/><path d="M860.15,291.3c-2.23-.06-3,1-3,3.22.12,4.47.06,9,0,13.42,0,1.16.34,2.81-1.57,2.74s-1.46-1.72-1.46-2.87c0-10.06,0-20.13,0-30.19,0-1.46.32-3-.69-4.32,1.26-1.92,1-4.13.76-6.15-1-8.45,3.23-13.94,9.87-18.19-.23.7-.24,1.63-.71,2.08-3.13,3-3.22,6.72-3.18,10.69C860.31,271.59,860.18,281.45,860.15,291.3Z" transform="translate(-710.9 -184.93)" style="fill:#37afd9"/><path d="M860.15,291.3c0-9.85.16-19.71.05-29.57,0-4,0-7.71,3.18-10.69.47-.45.48-1.38.71-2.08,1-.93,2.06-2.12,2.15.52.06,1.73,0,3.47,0,5.21,0,1.95-.32,3.9,1.68,5.36,1,.77.56,2.33.58,3.55q.21,11.17.36,22.35a12.8,12.8,0,0,1-1.84.21c-3-.11-5.9-.26-5.52,4.15C861.57,291,860.8,291.24,860.15,291.3Z" transform="translate(-710.9 -184.93)" style="fill:#14a3ce"/><path d="M742.55,294.67v14.82l-1.08.2c-.23-2.95-2.71-4.94-2.79-8,0-1.66-.75-3.11-2.48-3.23s-2.4,1.49-2.46,2.81c-.13,3.13-2.91,5.18-2.78,8.33l-1.33-.07v-16.4c3.07.44,2.94-2.28,3.89-3.94,2.34-.67,1.3-2.61,1.47-4,.41-3.57-.94-7.32,1.5-10.72.77-1.07,1.37-1.58,2.56-1.56h.11c1.68.55,2.85,1.43,2.24,3.46-2.17,1.42-2.19,6.9,0,8.54,0,.51,0,1,0,1.52C741.16,289.26,739.49,292.3,742.55,294.67Z" transform="translate(-710.9 -184.93)" style="fill:#14a3ce"/><path d="M779.31,300.56c-1.9.47-1.5,2-1.52,3.34A31.17,31.17,0,0,1,777,312c0-6.12-.15-12.24.06-18.35.13-4-.22-7.92-2.07-11.49-.68-1.31-.3-2.37-.27-3.55a23.33,23.33,0,0,0,5.74-12.23c.32-2.28,2.32-1.67,3.89-1.51.67,9.2-1.22,18.35-.54,27.55a9.6,9.6,0,0,0,0,1.85C784.4,297.92,783.27,300.23,779.31,300.56Z" transform="translate(-710.9 -184.93)" style="fill:#14a3ce"/><path d="M946.52,295.28c-2.95.36-3.83-1-3.82-3.86.09-16.92,0-33.84,0-50.76,1.36,0,1.25-1.52,2.14-2,.43,1.87,2.6,2.58,2.54,5-.25,9.81-.11,19.63-.08,29.44,0,1.46-.35,3,.79,4.28-.21,3.17.3,6.4-.73,9.51C945.9,289.6,947.13,292.53,946.52,295.28Z" transform="translate(-710.9 -184.93)" style="fill:#37afd9"/><path d="M763.57,287.85c1.23,4.26.46,8.61.57,12.92s0,8.6-.08,12.9l-2,.18c-4-8.05-1.85-16.68-2.39-25.06,0-.49,0-1.23-.24-1.44-4.46-3.27-2.87-8.2-3.49-12.51a3.77,3.77,0,0,1,2.89-.25c.75,2.05-1.51,5.76,3.12,5.67h0C762.65,282.76,760.45,285.86,763.57,287.85Z" transform="translate(-710.9 -184.93)" style="fill:#14a3ce"/><path d="M783.81,292.45c-.68-9.2,1.21-18.35.54-27.55,3.12-.85,4.72-.25,4.81,3.57.07,2.93,1.35,5.83,2.09,8.74-1.86,3.27.29,7.1-1.44,10.39C786.63,287.75,786.25,291.38,783.81,292.45Z" transform="translate(-710.9 -184.93)" style="fill:#37afd9"/><path d="M947.34,286.93c1-3.11.52-6.34.73-9.51,2-.45,1.79-2.15,2-3.56s.27-2.84.42-4.42c2.17.79.07,4.39,3.08,4,2.09-.3.67-2.66,2.31-4.07,0,6.19,2.58,11.62,2,17.51Z" transform="translate(-710.9 -184.93)" style="fill:#14a3ce"/><path d="M1038.75,297.46V278c1.61,0,3.24-.23,4.79.4q.11,9.62.22,19.23Z" transform="translate(-710.9 -184.93)" style="fill:#37afd9"/><path d="M987.79,288.3c-.68,1.81,1.5,5.21-2.14,5.24-3.46,0-2.14-3.23-2.33-5.21-.21-2.26.3-4.29-2.66-5.75-2.41-1.19-.72-4.56-1.15-6.92,3.34-1.36,4.58,0,4.41,3.35-.09,1.79.06,3.12,2.38,3.82C989,283.65,987.35,286.43,987.79,288.3Z" transform="translate(-710.9 -184.93)" style="fill:#37afd9"/><path d="M969.44,281.88c-2.84.21-3.57-1.23-3.5-3.87.14-5.72,0-11.44,0-17.17,2.68-.53,3.88.4,3.78,3.29C969.52,270,969.52,276,969.44,281.88Z" transform="translate(-710.9 -184.93)" style="fill:#37afd9"/><path d="M1001.32,294.35c-1.05-8.27-.84-16.58-.82-24.89a5.09,5.09,0,0,0-.78-3.2c3.1-.75,3.87.74,3.83,3.58-.1,6.17.05,12.35.1,18.53-1.52.44-2,1.45-1.15,2.74a5.28,5.28,0,0,1,1,3.42Z" transform="translate(-710.9 -184.93)" style="fill:#37afd9"/><path d="M843.06,291.57A2.15,2.15,0,0,1,841.5,289c.54-6.15-1.48-12.31,0-18.47,3.56-.64,5,.83,4.59,4.42-.15,1.52-.49,3.21.68,4.6C842.89,282.71,843.25,287.23,843.06,291.57Z" transform="translate(-710.9 -184.93)" style="fill:#37afd9"/><path d="M733.52,289.22c-.95,1.66-.82,4.38-3.89,3.94-4.6.09-2.33-3.42-2.86-5.46,1.77-1.14,1.54-2.94,1.51-4.65s.39-2.64,2.23-2.67,2.83.66,2.86,2.55C733.41,285,733.47,287.13,733.52,289.22Z" transform="translate(-710.9 -184.93)" style="fill:#37afd9"/><path d="M974.1,286.22c1.91,0,2.48,1.13,2.43,2.87-.07,2.44-.06,4.89-.08,7.33l-4.3.15a4.71,4.71,0,0,0-.21-.52c0-3.26,0-6.53,0-9.79Z" transform="translate(-710.9 -184.93)" style="fill:#37afd9"/><path d="M1019.39,288.15c-.11,1.77-.86,2.82-2.83,2.55s-1.82-1.75-1.84-3.12c0-2.62-.05-5.24-.07-7.86,2.44-.59,3,.67,3.06,2.82C1017.78,284.51,1016.78,286.9,1019.39,288.15Z" transform="translate(-710.9 -184.93)" style="fill:#37afd9"/><path d="M763.57,287.85c-3.12-2-.92-5.09-1.58-7.59a5.61,5.61,0,0,1,3.86.92C766.57,283.91,764.41,285.66,763.57,287.85Z" transform="translate(-710.9 -184.93)" style="fill:#37afd9"/><path d="M762,280.26c-4.63.09-2.37-3.62-3.12-5.67C763.91,274.27,761.14,278.26,762,280.26Z" transform="translate(-710.9 -184.93)" style="fill:#37afd9"/><path d="M841.51,270.49c-4.76.11-2.39-3.65-3.12-5.73C843.37,264.53,840.78,268.42,841.51,270.49Z" transform="translate(-710.9 -184.93)" style="fill:#37afd9"/><path d="M741.36,284.9c-2.15-1.64-2.13-7.12,0-8.54A25.25,25.25,0,0,1,741.36,284.9Z" transform="translate(-710.9 -184.93)" style="fill:#37afd9"/><path d="M1038.75,278c-4.19.27-2.59-3-3.09-5C1040.39,272.37,1038.12,276.07,1038.75,278Z" transform="translate(-710.9 -184.93)" style="fill:#37afd9"/><path d="M742.55,294.67c-3.06-2.37-1.39-5.41-1.17-8.25l1.24,0C742.6,289.19,742.57,291.93,742.55,294.67Z" transform="translate(-710.9 -184.93)" style="fill:#37afd9"/><path d="M739.16,272.9h-.11c-.06-1.09-.11-2.19-.17-3.28h.5Z" transform="translate(-710.9 -184.93)" style="fill:#37afd9"/><path d="M832.55,264.62l-.78,1.38C831.39,265.18,831.11,264.42,832.55,264.62Z" transform="translate(-710.9 -184.93)" style="fill:#37afd9"/><path d="M723.09,286.29v-1.56A1.06,1.06,0,0,1,723.09,286.29Z" transform="translate(-710.9 -184.93)" style="fill:#37afd9"/><path d="M834.82,264.7l-.31.56-.57-.6Z" transform="translate(-710.9 -184.93)" style="fill:#37afd9"/><path d="M1031.26,272.83l-1.31.76A1.12,1.12,0,0,1,1031.26,272.83Z" transform="translate(-710.9 -184.93)" style="fill:#37afd9"/><path d="M994.51,287.78l-.84.67Z" transform="translate(-710.9 -184.93)" style="fill:#37afd9"/><path d="M892.41,288.53l6.22-.07a15.18,15.18,0,0,1,.1,2.93c-.45,3.23,1,4.19,4,3.61,2.3.78,1.82,2.75,1.76,4.4-.08,2.28.62,3.53,3.15,3.45,1.34,0,2.72.65,4,.53,3.29-.3,5.24.6,5.2,4.32a2,2,0,0,0,1.9,2.36c1.63.07,2.1-1,2.23-2.4.18-2,1.6-1.92,3-1.92s2.79.11,2.94,2c.07.83-.06,2,1.09,2.06s1.09-1.09,1.17-1.92c.13-1.19-.17-2.74,1.85-2.4,1.51.25,3.45,0,3.46,2.43,0,.85,0,1.8,1.14,2,.79,2.9-.19,4.15-3.32,4-5.11-.16-10.23-.08-15.34,0-1.17,0-3.09-.4-3.18,1.14-.24,4.18-3.11,3.36-5.62,3.42-2.84.06-6.31-1-6.17,3.93,0,1.19-1.34,1.29-2.36,1.29-2.37,0-4.74,0-7.11,0q-.09-9.81-.2-19.63Z" transform="translate(-710.9 -184.93)" style="fill:#017baf"/><path d="M1001.32,294.35l2.16.18c0,5.74,0,11.48,0,17.22,0,2.27.24,3.95,3.16,3.79,2.26-.12,4.76.38,4.45-3.22-.21-2.41,1.2-2.95,3.27-2.85,1.62.08,3.25,0,4.87,0,.25,2.53.38,4.86-3.35,4.62-1.68-.11-1.86,1.32-1.86,2.66,0,3.24-.07,6.48,0,9.73,0,2.32-1.43,2.75-3.21,2.49s-4.63,1.28-5-2.2c-.17-1.69-.28-3.21-2.1-4a1.71,1.71,0,0,1-.87-1.93c.75-4.55-2-4.87-5.37-4.59s-6.49.47-6.11-4.69c.22-2.92-2.67-1.7-4.31-2,.54-2.5-1.32-5.47,1.46-7.55,3.3.61,5-.46,4.49-4.11a20.85,20.85,0,0,1,0-3.35Z" transform="translate(-710.9 -184.93)" style="fill:#017baf"/><path d="M1038.75,297.46l5,.17,0,15.53c-1.32-.67-2.55-3.45-4,.08-.5,1.26-2.2.69-3.4.65C1039,308.67,1037.37,302.85,1038.75,297.46Z" transform="translate(-710.9 -184.93)" style="fill:#017baf"/><path d="M958.61,309.39l7.33.07c0,1.36,0,2.73.08,4.09.05,1.62-.53,2.72-2.32,2.61-2.63-.17-3.09,1.34-3,3.52,0,1,.44,2.78-1,2.76-1.77,0-1.11-1.9-1.13-3C958.48,316.1,958.57,312.74,958.61,309.39Z" transform="translate(-710.9 -184.93)" style="fill:#017baf"/><path d="M971.94,296.05a4.71,4.71,0,0,1,.21.52h-1Z" transform="translate(-710.9 -184.93)" style="fill:#017baf"/><path d="M984,296.68c.29-.24.51-.2.64.17A2.88,2.88,0,0,1,984,296.68Z" transform="translate(-710.9 -184.93)" style="fill:#017baf"/><path d="M902.71,295c-2.94.58-4.43-.38-4-3.61a15.18,15.18,0,0,0-.1-2.93,99.49,99.49,0,0,0,0-15c0-9.77,0-19.55,0-29.32,0-1.46-.31-3,.59-4.34,2.73,1.8,5.8,1.56,8.86,1.46.09.27.19.53.29.8,0,2,0,4,0,6,0,.26,0,.52,0,.77-2.52.64-3.51,2.19-3.17,4.8.17,1.41.28,2.84-1.52,3.78-1.37.7-.75,2.47-.76,3.79Q902.76,278.07,902.71,295Z" transform="translate(-710.9 -184.93)" style="fill:#80d1e3"/><path d="M920.82,268.27l0-10.49-.57-.62c-2.06-.51-1.4-2.21-1.58-3.57s.72-3.29-1.39-4.1q.07-3,.13-6A53.62,53.62,0,0,0,937.56,248c.52,3.7.46,6.81-4.81,6.08-2-.28-1.92,1.49-1.93,2.89l-.12,11.95-3.08.39-5.07-.21Z" transform="translate(-710.9 -184.93)" style="fill:#80d1e3"/><path d="M917.38,243.47q-.06,3-.13,6c0,3.87-.1,7.75,0,11.62.3,11.05-2.52,22-1.52,33.05.11,1.29.35,3-1.68,3.15-2.35.14-2-1.76-2-3.19q0-19.49,0-39c0-3.62,0-7.24,0-10.86,0-2.88-1.11-3.69-3.68-2.28-.1-.27-.2-.53-.29-.8,2.43-1.59,5.09-.6,7.64-.59C917.45,240.62,917.18,242.29,917.38,243.47Z" transform="translate(-710.9 -184.93)" style="fill:#37afd9"/><path d="M899.2,239.75c-.9,1.35-.59,2.88-.59,4.34,0,9.77,0,19.55,0,29.32-3,.52-4-.69-3.91-3.68.18-3.85-.19-7.75.1-11.59.41-5.43-1-10.71-.8-16.17.13-3.78,1.42-4.54,4.48-4.47l.71.12Z" transform="translate(-710.9 -184.93)" style="fill:#37afd9"/><path d="M894.81,233c-4-.52-1.57-3.82-2.45-5.69C896.3,227.83,894,231,894.81,233Z" transform="translate(-710.9 -184.93)" style="fill:#37afd9"/><path d="M890.8,224.86c-1.83.07-2-1.72-3-2.62.15-2,.31-3.93.47-5.89C887.47,219.67,890.53,221.85,890.8,224.86Z" transform="translate(-710.9 -184.93)" style="fill:#37afd9"/><path d="M892.29,227.09c-1.09-.32-1.3-1.2-1.39-2.16C892.44,225,892.49,226,892.29,227.09Z" transform="translate(-710.9 -184.93)" style="fill:#37afd9"/><path d="M887.2,222.4l-.66.85Z" transform="translate(-710.9 -184.93)" style="fill:#37afd9"/><path d="M899.2,237.62l-.71-.12c.06-.25.12-.49.17-.74Z" transform="translate(-710.9 -184.93)" style="fill:#80d1e3"/><path d="M927.62,269.33l3.08-.39c.35,2.16-.71,4.91,2.49,5.91.23.08.46.63.46,1,0,5.46,0,10.92,0,16.38,0,1-.84,1.46-1.84,1.42-1.26,0-1.73-.85-1.74-2,0-2.73-.5-5.56,0-8.18C931.12,278.34,928,274.11,927.62,269.33Z" transform="translate(-710.9 -184.93)" style="fill:#37afd9"/><path d="M920.82,268.27l1.73.85c-.3,1.54.53,3.28-.77,4.63a1,1,0,0,1-1-.11A6,6,0,0,1,920.82,268.27Z" transform="translate(-710.9 -184.93)" style="fill:#37afd9"/><path d="M920.22,257.16l.57.62Z" transform="translate(-710.9 -184.93)" style="fill:#37afd9"/><path d="M908.33,248.76c0-.25,0-.51,0-.77a5.34,5.34,0,0,1,.16.53C908.51,248.6,908.39,248.68,908.33,248.76Z" transform="translate(-710.9 -184.93)" style="fill:#37afd9"/><path d="M812.06,283.15c-1.91.12-2.72-.87-2.77-2.68-.16-6.45-.48-12.9-.42-19.34,0-2-.23-4.84,3.23-4.82Q812.09,269.72,812.06,283.15Z" transform="translate(-710.9 -184.93)" style="fill:#37afd9"/><path d="M892.41,288.53l-.06,15.61c-5.82.22-5.82.22-5.84-5.37,0-1.49,0-3,0-4.47C886.5,288.51,886.51,288.51,892.41,288.53Z" transform="translate(-710.9 -184.93)" style="fill:#37afd9"/><path d="M993,294.5a20.85,20.85,0,0,0,0,3.35c.52,3.65-1.19,4.72-4.49,4.11a22.62,22.62,0,0,0,0-3C988,295.42,989.4,293.88,993,294.5Z" transform="translate(-710.9 -184.93)" style="fill:#37afd9"/></svg>