{
    "asset" : {
        "generator" : "Khronos glTF Blender I/O v1.5.17",
        "version" : "2.0"
    },
    "scene" : 0,
    "scenes" : [
        {
            "name" : "Scene",
            "nodes" : [
                0
            ]
        }
    ],
    "nodes" : [
        {
            "mesh" : 0,
            "name" : "Car03_2_Racing",
            "translation" : [
                0.08136177062988281,
                0.5932501554489136,
                0.32672882080078125
            ]
        }
    ],
    "materials" : [
        {
            "doubleSided" : true,
            "name" : "mt_PalleteBR",
            "pbrMetallicRoughness" : {
                "baseColorFactor" : [
                    0.028900185599923134,
                    0.059164777398109436,
                    0.08353166282176971,
                    1
                ],
                "metallicFactor" : 0,
                "roughnessFactor" : 0.5
            }
        },
        {
            "doubleSided" : true,
            "name" : "mt_Pallete_Green",
            "pbrMetallicRoughness" : {
                "baseColorFactor" : [
                    0.8000000715255737,
                    0.3899514377117157,
                    0.16378091275691986,
                    1
                ],
                "metallicFactor" : 0,
                "roughnessFactor" : 0.5
            }
        },
        {
            "doubleSided" : true,
            "name" : "mt_Pallete_Yellow",
            "pbrMetallicRoughness" : {
                "baseColorFactor" : [
                    0.8000000715255737,
                    0.6913990378379822,
                    0.008331270888447762,
                    1
                ],
                "metallicFactor" : 0,
                "roughnessFactor" : 0.5
            }
        }
    ],
    "meshes" : [
        {
            "name" : "Cube.160",
            "primitives" : [
                {
                    "attributes" : {
                        "POSITION" : 0,
                        "NORMAL" : 1,
                        "TEXCOORD_0" : 2
                    },
                    "indices" : 3,
                    "material" : 0
                },
                {
                    "attributes" : {
                        "POSITION" : 4,
                        "NORMAL" : 5,
                        "TEXCOORD_0" : 6
                    },
                    "indices" : 7,
                    "material" : 1
                },
                {
                    "attributes" : {
                        "POSITION" : 8,
                        "NORMAL" : 9,
                        "TEXCOORD_0" : 10
                    },
                    "indices" : 11,
                    "material" : 2
                }
            ]
        }
    ],
    "accessors" : [
        {
            "bufferView" : 0,
            "componentType" : 5126,
            "count" : 1215,
            "max" : [
                1.3630353212356567,
                2.2386515140533447,
                2.0432472229003906
            ],
            "min" : [
                -1.3630353212356567,
                -0.36658331751823425,
                -2.553373336791992
            ],
            "type" : "VEC3"
        },
        {
            "bufferView" : 1,
            "componentType" : 5126,
            "count" : 1215,
            "type" : "VEC3"
        },
        {
            "bufferView" : 2,
            "componentType" : 5126,
            "count" : 1215,
            "type" : "VEC2"
        },
        {
            "bufferView" : 3,
            "componentType" : 5123,
            "count" : 2136,
            "type" : "SCALAR"
        },
        {
            "bufferView" : 4,
            "componentType" : 5126,
            "count" : 220,
            "max" : [
                1.3630696535110474,
                2.308303117752075,
                2.0432472229003906
            ],
            "min" : [
                -1.3630696535110474,
                -0.36658331751823425,
                -1.336425542831421
            ],
            "type" : "VEC3"
        },
        {
            "bufferView" : 5,
            "componentType" : 5126,
            "count" : 220,
            "type" : "VEC3"
        },
        {
            "bufferView" : 6,
            "componentType" : 5126,
            "count" : 220,
            "type" : "VEC2"
        },
        {
            "bufferView" : 7,
            "componentType" : 5123,
            "count" : 420,
            "type" : "SCALAR"
        },
        {
            "bufferView" : 8,
            "componentType" : 5126,
            "count" : 238,
            "max" : [
                1.3630696535110474,
                1.6192338466644287,
                0.6599819660186768
            ],
            "min" : [
                -1.3630696535110474,
                -0.36658331751823425,
                -2.621814727783203
            ],
            "type" : "VEC3"
        },
        {
            "bufferView" : 9,
            "componentType" : 5126,
            "count" : 238,
            "type" : "VEC3"
        },
        {
            "bufferView" : 10,
            "componentType" : 5126,
            "count" : 238,
            "type" : "VEC2"
        },
        {
            "bufferView" : 11,
            "componentType" : 5123,
            "count" : 504,
            "type" : "SCALAR"
        }
    ],
    "bufferViews" : [
        {
            "buffer" : 0,
            "byteLength" : 14580,
            "byteOffset" : 0
        },
        {
            "buffer" : 0,
            "byteLength" : 14580,
            "byteOffset" : 14580
        },
        {
            "buffer" : 0,
            "byteLength" : 9720,
            "byteOffset" : 29160
        },
        {
            "buffer" : 0,
            "byteLength" : 4272,
            "byteOffset" : 38880
        },
        {
            "buffer" : 0,
            "byteLength" : 2640,
            "byteOffset" : 43152
        },
        {
            "buffer" : 0,
            "byteLength" : 2640,
            "byteOffset" : 45792
        },
        {
            "buffer" : 0,
            "byteLength" : 1760,
            "byteOffset" : 48432
        },
        {
            "buffer" : 0,
            "byteLength" : 840,
            "byteOffset" : 50192
        },
        {
            "buffer" : 0,
            "byteLength" : 2856,
            "byteOffset" : 51032
        },
        {
            "buffer" : 0,
            "byteLength" : 2856,
            "byteOffset" : 53888
        },
        {
            "buffer" : 0,
            "byteLength" : 1904,
            "byteOffset" : 56744
        },
        {
            "buffer" : 0,
            "byteLength" : 1008,
            "byteOffset" : 58648
        }
    ],
    "buffers" : [
        {
            "byteLength" : 59656,
            "uri" : "carbody.bin"
        }
    ]
}
