{
    "asset" : {
        "generator" : "Khronos glTF Blender I/O v1.5.17",
        "version" : "2.0"
    },
    "scene" : 0,
    "scenes" : [
        {
            "name" : "Scene",
            "nodes" : [
                0
            ]
        }
    ],
    "nodes" : [
        {
            "mesh" : 0,
            "name" : "Car03_2_Racing",
            "translation" : [
                0.08136177062988281,
                0.5932501554489136,
                0.32672882080078125
            ]
        }
    ],
    "materials" : [
        {
            "doubleSided" : true,
            "name" : "mt_PalleteBR",
            "pbrMetallicRoughness" : {
                "baseColorFactor" : [
                    1,
                    0.20722191035747528,
                    0.19584394991397858,
                    1
                ],
                "metallicFactor" : 0,
                "roughnessFactor" : 0.5
            }
        },
        {
            "doubleSided" : true,
            "name" : "mt_Pallete_Green",
            "pbrMetallicRoughness" : {
                "baseColorFactor" : [
                    0.8000000715255737,
                    0.3899514377117157,
                    0.16378091275691986,
                    1
                ],
                "metallicFactor" : 0,
                "roughnessFactor" : 0.5
            }
        },
        {
            "doubleSided" : true,
            "name" : "mt_PalleteBR_Glass",
            "pbrMetallicRoughness" : {
                "baseColorFactor" : [
                    0.800000011920929,
                    0.800000011920929,
                    0.800000011920929,
                    1
                ],
                "metallicFactor" : 0,
                "roughnessFactor" : 0.5
            }
        },
        {
            "doubleSided" : true,
            "name" : "mt_Pallete_Yellow",
            "pbrMetallicRoughness" : {
                "baseColorFactor" : [
                    0.8000000715255737,
                    0.6913990378379822,
                    0.008331270888447762,
                    1
                ],
                "metallicFactor" : 0,
                "roughnessFactor" : 0.5
            }
        },
        {
            "doubleSided" : true,
            "name" : "Material.003",
            "pbrMetallicRoughness" : {
                "baseColorFactor" : [
                    0.800000011920929,
                    0.800000011920929,
                    0.800000011920929,
                    1
                ],
                "metallicFactor" : 0,
                "roughnessFactor" : 0.5
            }
        },
        {
            "doubleSided" : true,
            "name" : "Material.004",
            "pbrMetallicRoughness" : {
                "baseColorFactor" : [
                    0.800000011920929,
                    0.800000011920929,
                    0.800000011920929,
                    1
                ],
                "metallicFactor" : 0,
                "roughnessFactor" : 0.5
            }
        },
        {
            "doubleSided" : true,
            "name" : "Material.005",
            "pbrMetallicRoughness" : {
                "baseColorFactor" : [
                    0.800000011920929,
                    0.800000011920929,
                    0.800000011920929,
                    1
                ],
                "metallicFactor" : 0,
                "roughnessFactor" : 0.5
            }
        }
    ],
    "meshes" : [
        {
            "name" : "Cube.160",
            "primitives" : [
                {
                    "attributes" : {
                        "POSITION" : 0,
                        "NORMAL" : 1,
                        "TEXCOORD_0" : 2
                    },
                    "indices" : 3,
                    "material" : 0
                },
                {
                    "attributes" : {
                        "POSITION" : 4,
                        "NORMAL" : 5,
                        "TEXCOORD_0" : 6
                    },
                    "indices" : 7,
                    "material" : 1
                },
                {
                    "attributes" : {
                        "POSITION" : 8,
                        "NORMAL" : 9,
                        "TEXCOORD_0" : 10
                    },
                    "indices" : 11,
                    "material" : 2
                },
                {
                    "attributes" : {
                        "POSITION" : 12,
                        "NORMAL" : 13,
                        "TEXCOORD_0" : 14
                    },
                    "indices" : 15,
                    "material" : 3
                },
                {
                    "attributes" : {
                        "POSITION" : 16,
                        "NORMAL" : 17,
                        "TEXCOORD_0" : 18
                    },
                    "indices" : 19,
                    "material" : 4
                },
                {
                    "attributes" : {
                        "POSITION" : 20,
                        "NORMAL" : 21,
                        "TEXCOORD_0" : 22
                    },
                    "indices" : 23,
                    "material" : 5
                },
                {
                    "attributes" : {
                        "POSITION" : 24,
                        "NORMAL" : 25,
                        "TEXCOORD_0" : 26
                    },
                    "indices" : 27,
                    "material" : 6
                }
            ]
        }
    ],
    "accessors" : [
        {
            "bufferView" : 0,
            "componentType" : 5126,
            "count" : 12,
            "max" : [
                1.2192233800888062,
                0.39363518357276917,
                1.611043930053711
            ],
            "min" : [
                -1.219222903251648,
                0.19786113500595093,
                1.6110436916351318
            ],
            "type" : "VEC3"
        },
        {
            "bufferView" : 1,
            "componentType" : 5126,
            "count" : 12,
            "type" : "VEC3"
        },
        {
            "bufferView" : 2,
            "componentType" : 5126,
            "count" : 12,
            "type" : "VEC2"
        },
        {
            "bufferView" : 3,
            "componentType" : 5123,
            "count" : 24,
            "type" : "SCALAR"
        },
        {
            "bufferView" : 4,
            "componentType" : 5126,
            "count" : 1138,
            "max" : [
                1.3630701303482056,
                2.308303117752075,
                1.7943038940429688
            ],
            "min" : [
                -1.3630696535110474,
                -0.36658334732055664,
                -2.870758056640625
            ],
            "type" : "VEC3"
        },
        {
            "bufferView" : 5,
            "componentType" : 5126,
            "count" : 1138,
            "type" : "VEC3"
        },
        {
            "bufferView" : 6,
            "componentType" : 5126,
            "count" : 1138,
            "type" : "VEC2"
        },
        {
            "bufferView" : 7,
            "componentType" : 5123,
            "count" : 2082,
            "type" : "SCALAR"
        },
        {
            "bufferView" : 8,
            "componentType" : 5126,
            "count" : 65,
            "max" : [
                1.2400305271148682,
                2.308303117752075,
                1.719181776046753
            ],
            "min" : [
                -1.2400295734405518,
                -0.07033878564834595,
                -2.6456642150878906
            ],
            "type" : "VEC3"
        },
        {
            "bufferView" : 9,
            "componentType" : 5126,
            "count" : 65,
            "type" : "VEC3"
        },
        {
            "bufferView" : 10,
            "componentType" : 5126,
            "count" : 65,
            "type" : "VEC2"
        },
        {
            "bufferView" : 11,
            "componentType" : 5123,
            "count" : 144,
            "type" : "SCALAR"
        },
        {
            "bufferView" : 12,
            "componentType" : 5126,
            "count" : 94,
            "max" : [
                1.3630701303482056,
                0.9585126042366028,
                1.7258625030517578
            ],
            "min" : [
                -1.3630691766738892,
                0.055883586406707764,
                -2.8704817295074463
            ],
            "type" : "VEC3"
        },
        {
            "bufferView" : 13,
            "componentType" : 5126,
            "count" : 94,
            "type" : "VEC3"
        },
        {
            "bufferView" : 14,
            "componentType" : 5126,
            "count" : 94,
            "type" : "VEC2"
        },
        {
            "bufferView" : 15,
            "componentType" : 5123,
            "count" : 204,
            "type" : "SCALAR"
        },
        {
            "bufferView" : 16,
            "componentType" : 5126,
            "count" : 71,
            "max" : [
                1.253633737564087,
                0.3936425745487213,
                1.7258625030517578
            ],
            "min" : [
                -1.2536332607269287,
                -0.36658334732055664,
                -2.788544178009033
            ],
            "type" : "VEC3"
        },
        {
            "bufferView" : 17,
            "componentType" : 5126,
            "count" : 71,
            "type" : "VEC3"
        },
        {
            "bufferView" : 18,
            "componentType" : 5126,
            "count" : 71,
            "type" : "VEC2"
        },
        {
            "bufferView" : 19,
            "componentType" : 5123,
            "count" : 144,
            "type" : "SCALAR"
        },
        {
            "bufferView" : 20,
            "componentType" : 5126,
            "count" : 26,
            "max" : [
                1.264647126197815,
                1.0115711688995361,
                -1.3480254411697388
            ],
            "min" : [
                -1.2646466493606567,
                0.16717767715454102,
                -1.5570580959320068
            ],
            "type" : "VEC3"
        },
        {
            "bufferView" : 21,
            "componentType" : 5126,
            "count" : 26,
            "type" : "VEC3"
        },
        {
            "bufferView" : 22,
            "componentType" : 5126,
            "count" : 26,
            "type" : "VEC2"
        },
        {
            "bufferView" : 23,
            "componentType" : 5123,
            "count" : 48,
            "type" : "SCALAR"
        },
        {
            "bufferView" : 24,
            "componentType" : 5126,
            "count" : 272,
            "max" : [
                1.0386536121368408,
                1.3126955032348633,
                0.08270925283432007
            ],
            "min" : [
                -1.0386531352996826,
                -0.24686551094055176,
                -1.0999623537063599
            ],
            "type" : "VEC3"
        },
        {
            "bufferView" : 25,
            "componentType" : 5126,
            "count" : 272,
            "type" : "VEC3"
        },
        {
            "bufferView" : 26,
            "componentType" : 5126,
            "count" : 272,
            "type" : "VEC2"
        },
        {
            "bufferView" : 27,
            "componentType" : 5123,
            "count" : 414,
            "type" : "SCALAR"
        }
    ],
    "bufferViews" : [
        {
            "buffer" : 0,
            "byteLength" : 144,
            "byteOffset" : 0
        },
        {
            "buffer" : 0,
            "byteLength" : 144,
            "byteOffset" : 144
        },
        {
            "buffer" : 0,
            "byteLength" : 96,
            "byteOffset" : 288
        },
        {
            "buffer" : 0,
            "byteLength" : 48,
            "byteOffset" : 384
        },
        {
            "buffer" : 0,
            "byteLength" : 13656,
            "byteOffset" : 432
        },
        {
            "buffer" : 0,
            "byteLength" : 13656,
            "byteOffset" : 14088
        },
        {
            "buffer" : 0,
            "byteLength" : 9104,
            "byteOffset" : 27744
        },
        {
            "buffer" : 0,
            "byteLength" : 4164,
            "byteOffset" : 36848
        },
        {
            "buffer" : 0,
            "byteLength" : 780,
            "byteOffset" : 41012
        },
        {
            "buffer" : 0,
            "byteLength" : 780,
            "byteOffset" : 41792
        },
        {
            "buffer" : 0,
            "byteLength" : 520,
            "byteOffset" : 42572
        },
        {
            "buffer" : 0,
            "byteLength" : 288,
            "byteOffset" : 43092
        },
        {
            "buffer" : 0,
            "byteLength" : 1128,
            "byteOffset" : 43380
        },
        {
            "buffer" : 0,
            "byteLength" : 1128,
            "byteOffset" : 44508
        },
        {
            "buffer" : 0,
            "byteLength" : 752,
            "byteOffset" : 45636
        },
        {
            "buffer" : 0,
            "byteLength" : 408,
            "byteOffset" : 46388
        },
        {
            "buffer" : 0,
            "byteLength" : 852,
            "byteOffset" : 46796
        },
        {
            "buffer" : 0,
            "byteLength" : 852,
            "byteOffset" : 47648
        },
        {
            "buffer" : 0,
            "byteLength" : 568,
            "byteOffset" : 48500
        },
        {
            "buffer" : 0,
            "byteLength" : 288,
            "byteOffset" : 49068
        },
        {
            "buffer" : 0,
            "byteLength" : 312,
            "byteOffset" : 49356
        },
        {
            "buffer" : 0,
            "byteLength" : 312,
            "byteOffset" : 49668
        },
        {
            "buffer" : 0,
            "byteLength" : 208,
            "byteOffset" : 49980
        },
        {
            "buffer" : 0,
            "byteLength" : 96,
            "byteOffset" : 50188
        },
        {
            "buffer" : 0,
            "byteLength" : 3264,
            "byteOffset" : 50284
        },
        {
            "buffer" : 0,
            "byteLength" : 3264,
            "byteOffset" : 53548
        },
        {
            "buffer" : 0,
            "byteLength" : 2176,
            "byteOffset" : 56812
        },
        {
            "buffer" : 0,
            "byteLength" : 828,
            "byteOffset" : 58988
        }
    ],
    "buffers" : [
        {
            "byteLength" : 59816,
            "uri" : "carbody1.bin"
        }
    ]
}
