<svg id="Layer_1" data-name="Layer 1" xmlns="http://www.w3.org/2000/svg" xmlns:xlink="http://www.w3.org/1999/xlink" viewBox="0 0 1524.1 1232"><defs><clipPath id="clip-path" transform="translate(536 338)"><path d="M-277.9,327.6c7.7-70.5,56.4-125,115-125H9.3c58.6,0,107.3,54.5,115,125Z" style="fill:none"/></clipPath></defs><title>cardash</title><path d="M-533.82-225.2c48.49,98,182.06,460.1,159.35,485.3-13.68,15.3-46.21,29.2-82,40.6l-.08-2-11.87,4.11L-471.55,894H929.6V300.7c-35.8-11.4-68.33-25.3-82-40.6-22.71-25.2,92.12-405.3,140.51-503.3V-338h-32C928.5-269,753.49,270,714.32,274.4H-241.1c-39.26-4.3-233.12-525.3-260.59-594.4H-536l1.68,101.47" transform="translate(536 338)" style="fill:#9b8579"/><path d="M929.1,302.7l-53.4-18.81-32.5,237s-110.8,105.15,21,245.39c0,0,56.9,43.86,56.9,122.7h8Z" transform="translate(536 338)" style="fill:#424143"/><path d="M-348.1,511.2s110.8,107.9-21,251.8c0,0-56.9,45-56.9,125.9h-44.9V300.8l90.3-32.7Z" transform="translate(536 338)" style="fill:#424143"/><path d="M851.9,560.3a50.23,50.23,0,0,0,50.2-50.2V313.5c0-25.1-19-45.4-42.4-45.4H-380.6c-23.4,0-42.4,20.3-42.4,45.4V505.3a55.05,55.05,0,0,0,55,55.1H851.9Z" transform="translate(536 338)" style="fill:#6e6f72"/><path d="M155.4,326.6c0-85-65.4-153.9-146-153.9H-162.9c-80.7,0-146,68.9-146,153.9v13.1H155.4Z" transform="translate(536 338)" style="fill:#6e6f72"/><path d="M-277.9,327.6c7.7-70.5,56.4-125,115-125H9.3c58.6,0,107.3,54.5,115,125Z" transform="translate(536 338)" style="fill:#424143"/><path d="M-57.6,230.5H-99a4,4,0,0,0-4,4v17.9a4,4,0,0,0,4,4h41.4a4,4,0,0,0,4-4V234.5A4,4,0,0,0-57.6,230.5Z" transform="translate(536 338)" style="fill:#71cfea;opacity:0.41999998688697815;isolation:isolate"/><rect x="438.02" y="573.48" width="39.4" height="16" style="fill:#424143"/><g style="clip-path:url(#clip-path)"><path d="M-154.6,363.8a62.05,62.05,0,0,0,62-62,62.05,62.05,0,0,0-62-62,62.05,62.05,0,0,0-62,62A62.05,62.05,0,0,0-154.6,363.8Zm0-113.4a51.34,51.34,0,0,1,51.3,51.3A51.34,51.34,0,0,1-154.6,353a51.34,51.34,0,0,1-51.3-51.3A51.34,51.34,0,0,1-154.6,250.4Z" transform="translate(536 338)" style="fill:#71cfea;opacity:0.41999998688697815;isolation:isolate"/><path d="M-193.4,325.4l5-2.9-1.1-1.8-5,2.9a43.76,43.76,0,0,1-3.7-9l5.5-1.5-.6-2.1-5.5,1.5a44.45,44.45,0,0,1-1.3-9.7h5.7v-2.1h-5.7a44.45,44.45,0,0,1,1.3-9.7l5.5,1.5.6-2.1-5.5-1.5a44.77,44.77,0,0,1,3.7-9l4.9,2.9,1.1-1.8-4.9-2.9a40.84,40.84,0,0,1,6-7.7l4,4,1.5-1.5-4-4a49.73,49.73,0,0,1,7.7-6l2.8,4.9,1.8-1.1-2.9-4.9a41.59,41.59,0,0,1,9-3.7l1.5,5.5,2.1-.6-1.5-5.5a44.45,44.45,0,0,1,9.7-1.3v5.7h2.1v-5.7a44.45,44.45,0,0,1,9.7,1.3l-1.5,5.5,2.1.6,1.5-5.5a44.77,44.77,0,0,1,9,3.7l-2.9,4.9,1.8,1.1,2.8-4.9a40.84,40.84,0,0,1,7.7,6l-4,4,1.5,1.5,4-4a49.73,49.73,0,0,1,6,7.7l-4.9,2.9,1.1,1.8,4.9-2.9a41.59,41.59,0,0,1,3.7,9l-5.5,1.5.6,2.1,5.5-1.5a44.45,44.45,0,0,1,1.3,9.7h-5.7v2.1h5.7a45.29,45.29,0,0,1-1.3,9.7l-5.4-1.5-.6,2.1,5.5,1.5a47.3,47.3,0,0,1-3.7,9l-5-2.9-1.1,1.8,5,2.9c-.9,1.5-2,3-3.1,4.5l1.7,1.3A47.17,47.17,0,0,0-107,301.7,47.74,47.74,0,0,0-154.6,254a47.67,47.67,0,0,0-47.6,47.7A47.17,47.17,0,0,0-192,331.2l1.7-1.3A27.68,27.68,0,0,1-193.4,325.4Z" transform="translate(536 338)" style="fill:#d2d3d4"/><path d="M-144,295.8a4,4,0,0,0-5.7-1.2l-2.8,2a4.64,4.64,0,0,0-2.1-.4,5.48,5.48,0,0,0-5.5,5.5v.4l-25.3,18.4,28.6-13.8a5.45,5.45,0,0,0,2.2.5,5.58,5.58,0,0,0,5.3-4l3.7-1.8a3.93,3.93,0,0,0,1.6-5.6Z" transform="translate(536 338)" style="fill:#71cfea;opacity:0.41999998688697815;isolation:isolate"/><circle cx="381.5" cy="640.1" r="7" style="fill:#d2d3d4"/><path d="M-.6,363.8a62.05,62.05,0,0,0,62-62,62.05,62.05,0,0,0-62-62,62.05,62.05,0,0,0-62,62A62.05,62.05,0,0,0-.6,363.8Zm0-113.4a51.34,51.34,0,0,1,51.3,51.3A51.34,51.34,0,0,1-.6,353a51.34,51.34,0,0,1-51.3-51.3A51.34,51.34,0,0,1-.6,250.4Z" transform="translate(536 338)" style="fill:#71cfea;opacity:0.41999998688697815;isolation:isolate"/><path d="M5.1,302.8a6.47,6.47,0,0,0,.4-2,5.65,5.65,0,0,0-5.1-5.6l-18.6-29.6,13.1,32.6a5.94,5.94,0,0,0-.7,2.6,5.49,5.49,0,0,0,3.9,5.3l.7,1.7a4.05,4.05,0,0,0,5.6,2.1A4.09,4.09,0,0,0,6,304.1Z" transform="translate(536 338)" style="fill:#71cfea;opacity:0.41999998688697815;isolation:isolate"/><path d="M.9,259.7a45.94,45.94,0,0,1,8.4,1.1l1.6-5.9a46.38,46.38,0,0,0-10-1.3Z" transform="translate(536 338)" style="fill:#d2d3d4"/><path d="M-40.3,276l5.3,3.1a48.05,48.05,0,0,1,5.2-6.7l-4.3-4.3A44.15,44.15,0,0,0-40.3,276Z" transform="translate(536 338)" style="fill:#d2d3d4"/><path d="M-32.6,266.5l4.3,4.3a47.36,47.36,0,0,1,6.7-5.1l-3.1-5.3A55.71,55.71,0,0,0-32.6,266.5Z" transform="translate(536 338)" style="fill:#d2d3d4"/><path d="M-1.3,259.7v-6.1a47.21,47.21,0,0,0-10,1.3l1.6,5.9A48.35,48.35,0,0,1-1.3,259.7Z" transform="translate(536 338)" style="fill:#d2d3d4"/><path d="M-13.4,255.4a42.24,42.24,0,0,0-9.3,3.8l3.1,5.3a44.1,44.1,0,0,1,7.8-3.2Z" transform="translate(536 338)" style="fill:#d2d3d4"/><path d="M-40,290.9l-5.9-1.6a47.27,47.27,0,0,0-1.4,10h6.1A38.68,38.68,0,0,1-40,290.9Z" transform="translate(536 338)" style="fill:#d2d3d4"/><path d="M-45.6,313.7a45.15,45.15,0,0,0,3.8,9.4l5.3-3.1a43.09,43.09,0,0,1-3.2-8Z" transform="translate(536 338)" style="fill:#d2d3d4"/><path d="M-45.4,287.2l5.9,1.6a41.52,41.52,0,0,1,3.3-7.8l-5.3-3.1A48,48,0,0,0-45.4,287.2Z" transform="translate(536 338)" style="fill:#d2d3d4"/><path d="M-41.2,301.5h-6.1a56.87,56.87,0,0,0,1.2,10.1l5.9-1.6A40.3,40.3,0,0,1-41.2,301.5Z" transform="translate(536 338)" style="fill:#d2d3d4"/><path d="M40.9,299.3H47a46.38,46.38,0,0,0-1.4-10l-5.9,1.6A38.68,38.68,0,0,1,40.9,299.3Z" transform="translate(536 338)" style="fill:#d2d3d4"/><path d="M39.1,288.7l5.9-1.6a48,48,0,0,0-3.9-9.3l-5.3,3.1A44.51,44.51,0,0,1,39.1,288.7Z" transform="translate(536 338)" style="fill:#d2d3d4"/><path d="M29.4,272.3a37.57,37.57,0,0,1,5.2,6.7l5.3-3.1a53.45,53.45,0,0,0-6.2-8Z" transform="translate(536 338)" style="fill:#d2d3d4"/><path d="M24.2,260.4l-3.1,5.3a42.26,42.26,0,0,1,6.7,5.1l4.3-4.3A39.61,39.61,0,0,0,24.2,260.4Z" transform="translate(536 338)" style="fill:#d2d3d4"/><path d="M39.9,310l5.9,1.6A42.92,42.92,0,0,0,47,301.5H40.9A48.13,48.13,0,0,1,39.9,310Z" transform="translate(536 338)" style="fill:#d2d3d4"/><path d="M13,255.4l-1.6,5.9a44.1,44.1,0,0,1,7.8,3.2l3.1-5.3A54.89,54.89,0,0,0,13,255.4Z" transform="translate(536 338)" style="fill:#d2d3d4"/><path d="M36.1,320l5.3,3.1a47.47,47.47,0,0,0,3.8-9.4l-5.9-1.6A36.34,36.34,0,0,1,36.1,320Z" transform="translate(536 338)" style="fill:#d2d3d4"/><circle cx="535.6" cy="638.7" r="6.7" style="fill:#d2d3d4"/></g><g style="clip-path:url(#clip-path)"><path d="M-92.4,240h0l-1.7.9-.3-1,2.1-1.1h1.1v9.7h-1.3V240Z" transform="translate(536 338)" style="fill:#d2d3d4"/><path d="M-81.1,243.6c0,3.3-1.2,5.1-3.4,5.1-1.9,0-3.2-1.8-3.2-5s1.4-5.1,3.4-5.1S-81.1,240.5-81.1,243.6Zm-5.3.1c0,2.5.8,4,2,4s2-1.6,2-4.1-.6-4-2-4C-85.6,239.7-86.4,241.1-86.4,243.7Z" transform="translate(536 338)" style="fill:#d2d3d4"/><path d="M-79.8,242.5a.84.84,0,0,1,.9-.9.9.9,0,0,1,.9.9.84.84,0,0,1-.9.9A.84.84,0,0,1-79.8,242.5Zm0,5.3a.84.84,0,0,1,.9-.9.9.9,0,0,1,.9.9.84.84,0,0,1-.9.9A.84.84,0,0,1-79.8,247.8Z" transform="translate(536 338)" style="fill:#d2d3d4"/><path d="M-71,239.9h-3.7l-.4,2.5c.2,0,.4-.1.8-.1a5,5,0,0,1,2.1.5,2.7,2.7,0,0,1,1.4,2.5,3.35,3.35,0,0,1-3.6,3.3,4.37,4.37,0,0,1-2.4-.6l.3-1a5,5,0,0,0,2.1.5,2.16,2.16,0,0,0,2.3-2.1c0-1.3-.9-2.2-2.8-2.2-.6,0-1,.1-1.3.1l.6-4.7h4.7v1.3Z" transform="translate(536 338)" style="fill:#d2d3d4"/><path d="M-68.4,247.6h1.1a3.37,3.37,0,0,0,2-.9,4.58,4.58,0,0,0,1.3-2.6h0a2.64,2.64,0,0,1-2.3,1,2.81,2.81,0,0,1-2.9-3,3.37,3.37,0,0,1,3.3-3.5c2,0,3.2,1.6,3.2,4.1a6.26,6.26,0,0,1-1.7,4.6,4.86,4.86,0,0,1-2.8,1.3,5.74,5.74,0,0,1-1.2.1Zm.5-5.6a1.89,1.89,0,0,0,1.9,2.1,2,2,0,0,0,1.9-1,.75.75,0,0,0,.1-.5c0-1.7-.6-2.9-2-2.9C-67.1,239.6-67.9,240.6-67.9,242Z" transform="translate(536 338)" style="fill:#d2d3d4"/></g><rect x="564" y="882.4" width="28" height="43.5" style="fill:#6e6f72"/><rect x="451.4" y="883.2" width="28" height="43.5" style="fill:#6e6f72"/><rect x="324.2" y="883.2" width="28" height="43.5" style="fill:#6e6f72"/><path d="M902.1,432.5v68.6a59.3,59.3,0,0,1-59.3,59.3H-367a56,56,0,0,1-55.9-56V432.5Z" transform="translate(536 338)" style="fill:#8b5e3c"/><path d="M548.2,560.6c9.1-10.6,15.1-29.5,15.1-51V432.4H551.8v77.2c0,21.5-6,40.4-15.1,51Z" transform="translate(536 338)" style="fill:#754c29"/><path d="M826.2,560.3h20a56,56,0,0,0,55.9-56V432.4h-20v71.9A55.82,55.82,0,0,1,826.2,560.3Z" transform="translate(536 338)" style="fill:#754c29"/><path d="M259.2,294.4H161.8a14.3,14.3,0,0,0-14.3,14.3V355a14.3,14.3,0,0,0,14.3,14.3h97.4A14.3,14.3,0,0,0,273.5,355V308.7A14.3,14.3,0,0,0,259.2,294.4Z" transform="translate(536 338)" style="fill:#939598"/><path d="M157.4,355V308.7a4.48,4.48,0,0,1,4.5-4.5h97.4a4.48,4.48,0,0,1,4.5,4.5V355a4.48,4.48,0,0,1-4.5,4.5H161.9A4.48,4.48,0,0,1,157.4,355Z" transform="translate(536 338)" style="fill:#424143"/><rect x="693.5" y="647.6" width="106.3" height="5.1" style="fill:#6e6f72"/><rect x="693.5" y="657.7" width="106.3" height="5.1" style="fill:#6e6f72"/><rect x="693.5" y="667.8" width="106.3" height="5.1" style="fill:#6e6f72"/><rect x="693.5" y="678" width="106.3" height="5.1" style="fill:#6e6f72"/><rect x="693.5" y="687.4" width="106.3" height="5.1" style="fill:#6e6f72"/><path d="M410.4,294.4H313a14.3,14.3,0,0,0-14.3,14.3V355A14.3,14.3,0,0,0,313,369.3h97.4A14.3,14.3,0,0,0,424.7,355V308.7A14.3,14.3,0,0,0,410.4,294.4Z" transform="translate(536 338)" style="fill:#939598"/><path d="M308.6,355V308.7a4.48,4.48,0,0,1,4.5-4.5h97.4a4.48,4.48,0,0,1,4.5,4.5V355a4.48,4.48,0,0,1-4.5,4.5H313.1A4.48,4.48,0,0,1,308.6,355Z" transform="translate(536 338)" style="fill:#424143"/><rect x="844.7" y="647.6" width="106.3" height="5.1" style="fill:#6e6f72"/><rect x="844.7" y="657.7" width="106.3" height="5.1" style="fill:#6e6f72"/><rect x="844.7" y="667.8" width="106.3" height="5.1" style="fill:#6e6f72"/><rect x="844.7" y="678" width="106.3" height="5.1" style="fill:#6e6f72"/><rect x="844.7" y="687.4" width="106.3" height="5.1" style="fill:#6e6f72"/><path d="M509.6,893H62.6l4.6-11.6a485.9,485.9,0,0,0,34.1-179.3V432.5H470.9V705a471.19,471.19,0,0,0,33,173.7Z" transform="translate(536 338)" style="fill:#939598"/><path d="M427.1,893H145.2a369.19,369.19,0,0,0,16.5-86.2l10.9-166.5H399.8l11,168.5A357.79,357.79,0,0,0,427.1,893Z" transform="translate(536 338)" style="fill:#6e6f72"/><polygon points="874.1 851.1 835 989.9 770.2 989.9 809.3 851.1 874.1 851.1" style="fill:#424143;opacity:0.07999999821186066;isolation:isolate"/><polygon points="874.1 851.1 835 989.9 770.2 989.9 809.3 851.1 874.1 851.1" style="fill:#424143;opacity:0.07999999821186066;isolation:isolate"/><rect x="799.9" y="1137.3" width="44.5" height="94.1" style="fill:#a8aaad"/><path d="M347.2,791.3c0,33.7,1.1,61.1-61.1,61.1-60.3,0-61.1-27.4-61.1-61.1,0-50.6,27.3-61.1,61.1-61.1S347.2,738.9,347.2,791.3Z" transform="translate(536 338)" style="fill:#595a5c"/><rect x="784.4" y="1096.8" width="4" height="48.7" style="fill:#a8aaad"/><polygon points="863.2 1145.2 859.6 1145.2 859.6 1124.3 787 1124.3 787 1120.7 863.2 1120.7 863.2 1145.2" style="fill:#a8aaad"/><rect x="821.9" y="1097.3" width="3.6" height="48.7" style="fill:#a8aaad"/><path d="M421.5,382.3H150.8a7.38,7.38,0,0,0-7.4,7.4v23a7.38,7.38,0,0,0,7.4,7.4H421.5a7.38,7.38,0,0,0,7.4-7.4v-23A7.51,7.51,0,0,0,421.5,382.3Z" transform="translate(536 338)" style="fill:#595a5c"/><path d="M158.6,387.6h0a12.93,12.93,0,0,0-12.9,12.9h0a12.93,12.93,0,0,0,12.9,12.9h0a12.93,12.93,0,0,0,12.9-12.9h0A12.87,12.87,0,0,0,158.6,387.6Z" transform="translate(536 338)" style="fill:#a8aaad"/><path d="M205.7,387.6h0a12.93,12.93,0,0,0-12.9,12.9h0a12.93,12.93,0,0,0,12.9,12.9h0a12.93,12.93,0,0,0,12.9-12.9h0A12.87,12.87,0,0,0,205.7,387.6Z" transform="translate(536 338)" style="fill:#6e6f72"/><circle cx="896.5" cy="738.9" r="13.3" style="fill:#a8aaad"/><circle cx="937.1" cy="738.9" r="13.3" style="fill:#6e6f72"/><circle cx="854.9" cy="738.9" r="13.3" style="fill:#a8aaad"/><rect x="853.8" y="726.8" width="2" height="4.3" style="fill:#595a5c"/><rect x="895.5" y="726.8" width="2" height="4.3" style="fill:#595a5c"/><rect x="936.1" y="726.8" width="2" height="4.3" style="fill:#595a5c"/><path d="M293,389.4H232.9a5.12,5.12,0,0,0-5.1,5.1h0a5.12,5.12,0,0,0,5.1,5.1H293a5.12,5.12,0,0,0,5.1-5.1h0A5.12,5.12,0,0,0,293,389.4Z" transform="translate(536 338)" style="fill:#a8aaad"/><path d="M293,402.7H232.9a5.12,5.12,0,0,0-5.1,5.1h0a5.12,5.12,0,0,0,5.1,5.1H293a5.12,5.12,0,0,0,5.1-5.1h0A5.12,5.12,0,0,0,293,402.7Z" transform="translate(536 338)" style="fill:#a8aaad"/><path d="M414.5,456.1H157.7a21.42,21.42,0,0,0-21.4,21.4V632.9a21.42,21.42,0,0,0,21.4,21.4H414.5a21.42,21.42,0,0,0,21.4-21.4V477.4A21.34,21.34,0,0,0,414.5,456.1Z" transform="translate(536 338)" style="fill:#d2d3d4"/><rect x="694.39" y="816.12" width="255.5" height="138.8" style="fill:#424143"/><path d="M251.9,626.5h-5.2a10.76,10.76,0,0,0-10.8,10.8h0a10.76,10.76,0,0,0,10.8,10.8h5.2a10.76,10.76,0,0,0,10.8-10.8h0A10.76,10.76,0,0,0,251.9,626.5Z" transform="translate(536 338)" style="fill:#e6e7e7"/><path d="M211.2,626.5H206a10.76,10.76,0,0,0-10.8,10.8h0A10.76,10.76,0,0,0,206,648.1h5.2A10.76,10.76,0,0,0,222,637.3h0A10.82,10.82,0,0,0,211.2,626.5Z" transform="translate(536 338)" style="fill:#bdbec0"/><path d="M163.3,626.5h-5.2a10.76,10.76,0,0,0-10.8,10.8h0a10.76,10.76,0,0,0,10.8,10.8h5.2a10.76,10.76,0,0,0,10.8-10.8h0A10.76,10.76,0,0,0,163.3,626.5Z" transform="translate(536 338)" style="fill:#bdbec0"/><rect x="840.7" y="965.9" width="15.1" height="19.8" style="fill:#bdbec0"/><rect x="863.6" y="965.9" width="15.1" height="19.8" style="fill:#e6e7e7"/><path d="M404.9,627.9H380.1a9.86,9.86,0,0,0-9.9,9.9h0a9.86,9.86,0,0,0,9.9,9.9h24.8a9.86,9.86,0,0,0,9.9-9.9h0A9.92,9.92,0,0,0,404.9,627.9Z" transform="translate(536 338)" style="fill:#e6e7e7"/><polygon points="821.7 816.1 782.6 955 717.8 955 756.9 816.1 821.7 816.1" style="fill:#f7f8f8;opacity:0.07999999821186066;isolation:isolate"/><polygon points="925 816.1 885.9 955 821.1 955 860.2 816.1 925 816.1" style="fill:#f7f8f8;opacity:0.07999999821186066;isolation:isolate"/><path d="M743.5,480H694.1a15.66,15.66,0,0,0-15.7,15.7h0a15.66,15.66,0,0,0,15.7,15.7h49.4a15.66,15.66,0,0,0,15.7-15.7h0A15.66,15.66,0,0,0,743.5,480Z" transform="translate(536 338)" style="fill:#754c29"/><path d="M759.3,495.9v-.2A15.66,15.66,0,0,0,743.6,480H694.1a15.66,15.66,0,0,0-15.7,15.7v.2Z" transform="translate(536 338)" style="fill:#a97c50"/><circle cx="186.8" cy="689.1" r="50.9" style="fill:#939598"/><path d="M-309.2,351.1c0,1.1,0,2.2-.1,3.3a40.13,40.13,0,0,1-.7,5,38,38,0,0,1-1.5,5.1,31.65,31.65,0,0,1-2.2,5,33.59,33.59,0,0,1-3.2,5.1,48.23,48.23,0,0,1-3.6,4.3,37.51,37.51,0,0,1-6.1,5.1,39.88,39.88,0,0,1-22.7,7,40.12,40.12,0,0,1-22.7-7,42.3,42.3,0,0,1-6.1-5.1,30.36,30.36,0,0,1-3.6-4.3,33.59,33.59,0,0,1-3.2-5.1,44.58,44.58,0,0,1-2.2-5,49.13,49.13,0,0,1-1.5-5.1,40.13,40.13,0,0,1-.7-5c-.1-1.1-.1-2.2-.1-3.3v-1.8c.1-1.7.3-3.4.5-5a38.07,38.07,0,0,1,1.2-5.1,42.26,42.26,0,0,1,2.5-6.2,43.26,43.26,0,0,1,3.1-5.1,50.49,50.49,0,0,1,4.2-5,39,39,0,0,1,6.3-5.1,40,40,0,0,1,21.9-6.5,40,40,0,0,1,21.9,6.5,39,39,0,0,1,6.3,5.1,33.71,33.71,0,0,1,4.2,5,33,33,0,0,1,3.1,5.1,36.55,36.55,0,0,1,2.5,6.2,47,47,0,0,1,1.2,5.1,27.34,27.34,0,0,1,.5,5A2.12,2.12,0,0,1-309.2,351.1Z" transform="translate(536 338)" style="fill:#424143"/><path d="M-309.8,344.3h-78.8a38.07,38.07,0,0,1,1.2-5.1h76.3A31.81,31.81,0,0,1-309.8,344.3Z" transform="translate(536 338)" style="fill:#6e6f72"/><polygon points="226.6 692.5 146.9 692.5 146.8 687.3 226.7 687.3 226.6 692.5" style="fill:#6e6f72"/><path d="M-310.1,359.4a38,38,0,0,1-1.5,5.1h-75.3a49.13,49.13,0,0,1-1.5-5.1Z" transform="translate(536 338)" style="fill:#6e6f72"/><path d="M-327.3,317.7h-43.8a39,39,0,0,0-6.3,5.1h56.5Z" transform="translate(536 338)" style="fill:#6e6f72"/><polygon points="222.4 671 151.2 671 154.3 665.8 219.3 665.8 222.4 671" style="fill:#6e6f72"/><path d="M-313.7,369.6a33.59,33.59,0,0,1-3.2,5.1h-64.6a33.59,33.59,0,0,1-3.2-5.1Z" transform="translate(536 338)" style="fill:#6e6f72"/><path d="M-320.5,379H-378a37.51,37.51,0,0,0,6.1,5.1h45.3Z" transform="translate(536 338)" style="fill:#6e6f72"/><circle cx="1221.7" cy="689.1" r="50.9" style="fill:#939598"/><path d="M725.7,351.1c0,1.1,0,2.2-.1,3.3a40.13,40.13,0,0,1-.7,5,38,38,0,0,1-1.5,5.1,31.65,31.65,0,0,1-2.2,5,33.59,33.59,0,0,1-3.2,5.1,48.23,48.23,0,0,1-3.6,4.3,37.51,37.51,0,0,1-6.1,5.1,39.88,39.88,0,0,1-22.7,7,40.36,40.36,0,0,1-22.7-7,42.3,42.3,0,0,1-6.1-5.1,30.36,30.36,0,0,1-3.6-4.3,33.59,33.59,0,0,1-3.2-5.1,44.58,44.58,0,0,1-2.2-5,49.13,49.13,0,0,1-1.5-5.1,40.13,40.13,0,0,1-.7-5c-.1-1.1-.1-2.2-.1-3.3v-1.8c.1-1.7.3-3.4.5-5a38.07,38.07,0,0,1,1.2-5.1,42.26,42.26,0,0,1,2.5-6.2,43.26,43.26,0,0,1,3.1-5.1,50.49,50.49,0,0,1,4.2-5,39,39,0,0,1,6.3-5.1,40.14,40.14,0,0,1,43.8,0,39,39,0,0,1,6.3,5.1,33.71,33.71,0,0,1,4.2,5,33,33,0,0,1,3.1,5.1,36.55,36.55,0,0,1,2.5,6.2,47,47,0,0,1,1.2,5.1,27.34,27.34,0,0,1,.5,5A1.88,1.88,0,0,1,725.7,351.1Z" transform="translate(536 338)" style="fill:#424143"/><path d="M725.1,344.3H646.3a38.07,38.07,0,0,1,1.2-5.1h76.3A31.81,31.81,0,0,1,725.1,344.3Z" transform="translate(536 338)" style="fill:#6e6f72"/><polygon points="1261.6 692.5 1181.9 692.5 1181.8 687.3 1261.7 687.3 1261.6 692.5" style="fill:#6e6f72"/><path d="M724.8,359.4a38,38,0,0,1-1.5,5.1H648.1a49.13,49.13,0,0,1-1.5-5.1Z" transform="translate(536 338)" style="fill:#6e6f72"/><path d="M707.6,317.7H663.8a39,39,0,0,0-6.3,5.1H714Z" transform="translate(536 338)" style="fill:#6e6f72"/><polygon points="1257.3 671 1186.1 671 1189.2 665.8 1254.2 665.8 1257.3 671" style="fill:#6e6f72"/><path d="M721.2,369.6a33.59,33.59,0,0,1-3.2,5.1H653.4a33.59,33.59,0,0,1-3.2-5.1Z" transform="translate(536 338)" style="fill:#6e6f72"/><path d="M714.5,379H657a37.51,37.51,0,0,0,6.1,5.1h45.3Z" transform="translate(536 338)" style="fill:#6e6f72"/><circle cx="1352" cy="689.1" r="50.9" style="fill:#939598"/><path d="M856,351.1c0,1.1,0,2.2-.1,3.3a40.13,40.13,0,0,1-.7,5,38,38,0,0,1-1.5,5.1,31.65,31.65,0,0,1-2.2,5,33.59,33.59,0,0,1-3.2,5.1,48.23,48.23,0,0,1-3.6,4.3,37.51,37.51,0,0,1-6.1,5.1,39.88,39.88,0,0,1-22.7,7,40.36,40.36,0,0,1-22.7-7,42.3,42.3,0,0,1-6.1-5.1,30.36,30.36,0,0,1-3.6-4.3,33.59,33.59,0,0,1-3.2-5.1,44.58,44.58,0,0,1-2.2-5,49.13,49.13,0,0,1-1.5-5.1,40.13,40.13,0,0,1-.7-5c-.1-1.1-.1-2.2-.1-3.3v-1.8c.1-1.7.3-3.4.5-5a38.07,38.07,0,0,1,1.2-5.1A42.26,42.26,0,0,1,780,333a43.26,43.26,0,0,1,3.1-5.1,50.49,50.49,0,0,1,4.2-5,39,39,0,0,1,6.3-5.1,40.14,40.14,0,0,1,43.8,0,39,39,0,0,1,6.3,5.1,33.71,33.71,0,0,1,4.2,5A33,33,0,0,1,851,333a36.55,36.55,0,0,1,2.5,6.2,47,47,0,0,1,1.2,5.1,27.34,27.34,0,0,1,.5,5A1.88,1.88,0,0,1,856,351.1Z" transform="translate(536 338)" style="fill:#424143"/><path d="M855.4,344.3H776.6a38.07,38.07,0,0,1,1.2-5.1h76.3A31.81,31.81,0,0,1,855.4,344.3Z" transform="translate(536 338)" style="fill:#6e6f72"/><polygon points="1391.8 692.5 1312.2 692.5 1312.1 687.3 1391.9 687.3 1391.8 692.5" style="fill:#6e6f72"/><path d="M855.1,359.4a38,38,0,0,1-1.5,5.1H778.3a49.13,49.13,0,0,1-1.5-5.1Z" transform="translate(536 338)" style="fill:#6e6f72"/><path d="M837.9,317.7H794.1a39,39,0,0,0-6.3,5.1h56.5Z" transform="translate(536 338)" style="fill:#6e6f72"/><polygon points="1387.6 671 1316.4 671 1319.5 665.8 1384.5 665.8 1387.6 671" style="fill:#6e6f72"/><path d="M851.5,369.6a33.59,33.59,0,0,1-3.2,5.1H783.7a33.59,33.59,0,0,1-3.2-5.1Z" transform="translate(536 338)" style="fill:#6e6f72"/><path d="M844.7,379H787.2a37.51,37.51,0,0,0,6.1,5.1h45.3Z" transform="translate(536 338)" style="fill:#6e6f72"/><path d="M65.6,894H-452.6c12.1-28.9,40.2-109.1,112.5-116.4,0,0,6-.6,16.2-1.4a218.48,218.48,0,0,1,24.2-3.2c6.2-.6,12.9-1.1,20-1.5,31.5-1.8,69.5-2.1,97.3-1.5,35.7-.7,108.7-.1,150,3.4,4.5.4,8.7.8,12.4,1.3s6.8.9,9.4,1.5c10.2.8,16.2,1.4,16.2,1.4C78,784.9,81,855,65.6,894Z" transform="translate(536 338)" style="fill:#818285"/><path d="M-279.7,771.5c-43.4,30.3-63,95.4-72.5,122.5h-18c9.4-26.7,28.5-90.1,70.5-121C-293.5,772.4-286.8,771.9-279.7,771.5Z" transform="translate(536 338)" style="fill:#a8aaad"/><path d="M-20,774.7C-10,816-23.9,864.2-33.7,894H-51.6c8.5-25.8,26-76,19.2-120.5Z" transform="translate(536 338)" style="fill:#a8aaad"/><path d="M929.1,786.5a95.73,95.73,0,0,0-32-8.8s-6-.6-16.2-1.4a218.48,218.48,0,0,0-24.2-3.2c-6.2-.6-12.9-1.1-20-1.5-31.5-1.8-69.5-2.1-97.3-1.5-35.7-.7-108.7-.1-150,3.4-4.5.4-8.7.8-12.4,1.3s-6.8.9-9.4,1.5c-10.2.8-16.2,1.4-16.2,1.4-72.3,7.2-75.3,77.3-60,116.3H929.1Z" transform="translate(536 338)" style="fill:#818285"/><path d="M836.7,771.5c43.4,30.3,63,95.4,72.5,122.5h18c-9.4-26.7-28.5-90.1-70.5-121C850.5,772.4,843.8,771.9,836.7,771.5Z" transform="translate(536 338)" style="fill:#a8aaad"/><path d="M589.4,773.5c-6.9,44.6,10.6,94.7,19.2,120.5H590.7C581,864.2,567,816,577,774.7Z" transform="translate(536 338)" style="fill:#a8aaad"/><polygon points="595.3 1046.5 613.5 1020.6 613.5 921.7 539.6 921.7 539.6 1046.5 595.3 1046.5" style="fill:#6e6f72"/><path d="M17.2,590.3h0a4.44,4.44,0,0,0-4.4,4.4V695.8a4.44,4.44,0,0,0,4.4,4.4h0a4.44,4.44,0,0,0,4.4-4.4V594.6A4.35,4.35,0,0,0,17.2,590.3Z" transform="translate(536 338)" style="fill:#424143;opacity:0.4000000059604645;isolation:isolate"/><path d="M32.9,590.3h0a4.44,4.44,0,0,0-4.4,4.4V695.8a4.44,4.44,0,0,0,4.4,4.4h0a4.44,4.44,0,0,0,4.4-4.4V594.6A4.35,4.35,0,0,0,32.9,590.3Z" transform="translate(536 338)" style="fill:#424143;opacity:0.4000000059604645;isolation:isolate"/><path d="M49.1,590.3h0a4.44,4.44,0,0,0-4.4,4.4V694.9a4.44,4.44,0,0,0,4.4,4.4h0a4.44,4.44,0,0,0,4.4-4.4V594.6A4.35,4.35,0,0,0,49.1,590.3Z" transform="translate(536 338)" style="fill:#424143;opacity:0.4000000059604645;isolation:isolate"/><path d="M65,590.3h0a4.44,4.44,0,0,0-4.4,4.4v80.7a4.44,4.44,0,0,0,4.4,4.4h0a4.44,4.44,0,0,0,4.4-4.4V594.7A4.37,4.37,0,0,0,65,590.3Z" transform="translate(536 338)" style="fill:#424143;opacity:0.4000000059604645;isolation:isolate"/><path d="M-29.3,588.8h-77.9A11.18,11.18,0,0,0-118.4,600v62.5a11.18,11.18,0,0,0,11.2,11.2h77.9a11.18,11.18,0,0,0,11.2-11.2V600A11.31,11.31,0,0,0-29.3,588.8Z" transform="translate(536 338)" style="fill:#6e6f72"/><path d="M-157.1,588.8H-235A11.18,11.18,0,0,0-246.2,600v62.5A11.18,11.18,0,0,0-235,673.7h77.9a11.18,11.18,0,0,0,11.2-11.2V600A11.31,11.31,0,0,0-157.1,588.8Z" transform="translate(536 338)" style="fill:#6e6f72"/><path d="M-34.6,606.1h-68.2c-6.4-.5-6.4-10.1,0-10.6h69c6.4.5,6.4,10.1,0,10.6Z" transform="translate(536 338)" style="fill:#424143;opacity:0.4000000059604645;isolation:isolate"/><path d="M-34.6,626.5h-68.2c-6.4-.5-6.4-10.1,0-10.6h69c6.4.5,6.4,10.1,0,10.6Z" transform="translate(536 338)" style="fill:#424143;opacity:0.4000000059604645;isolation:isolate"/><path d="M-34.6,646.9h-68.2c-6.4-.5-6.4-10.1,0-10.6h69c6.4.5,6.4,10.1,0,10.6Z" transform="translate(536 338)" style="fill:#424143;opacity:0.4000000059604645;isolation:isolate"/><path d="M-34.6,667.4h-68.2c-6.4-.5-6.4-10.1,0-10.6h69c6.4.5,6.4,10.1,0,10.6A2.13,2.13,0,0,0-34.6,667.4Z" transform="translate(536 338)" style="fill:#424143;opacity:0.4000000059604645;isolation:isolate"/><path d="M-162.4,606.1h-68.3c-6.4-.5-6.4-10.1,0-10.6h69c6.4.5,6.4,10.1,0,10.6Z" transform="translate(536 338)" style="fill:#424143;opacity:0.4000000059604645;isolation:isolate"/><path d="M-162.4,626.5h-68.3c-6.4-.5-6.4-10.1,0-10.6h69c6.4.5,6.4,10.1,0,10.6Z" transform="translate(536 338)" style="fill:#424143;opacity:0.4000000059604645;isolation:isolate"/><path d="M-162.4,646.9h-68.3c-6.4-.5-6.4-10.1,0-10.6h69c6.4.5,6.4,10.1,0,10.6Z" transform="translate(536 338)" style="fill:#424143;opacity:0.4000000059604645;isolation:isolate"/><path d="M-162.4,667.4h-68.3c-6.4-.5-6.4-10.1,0-10.6h69c6.4.5,6.4,10.1,0,10.6C-161.9,667.3-162.2,667.4-162.4,667.4Z" transform="translate(536 338)" style="fill:#424143;opacity:0.4000000059604645;isolation:isolate"/></svg>