{
    "asset" : {
        "generator" : "Khronos glTF Blender I/O v1.5.17",
        "version" : "2.0"
    },
    "scene" : 0,
    "scenes" : [
        {
            "name" : "Scene",
            "nodes" : [
                0
            ]
        }
    ],
    "nodes" : [
        {
            "mesh" : 0,
            "name" : "Cube",
            "scale" : [
                1,
                0.8475494384765625,
                5.952011585235596
            ]
        }
    ],
    "materials" : [
        {
            "doubleSided" : true,
            "name" : "Material",
            "pbrMetallicRoughness" : {
                "baseColorFactor" : [
                    0.8000000715255737,
                    0.213624969124794,
                    0,
                    1
                ],
                "metallicFactor" : 0,
                "roughnessFactor" : 0.4000000059604645
            }
        },
        {
            "doubleSided" : true,
            "name" : "Material.001",
            "pbrMetallicRoughness" : {
                "baseColorFactor" : [
                    0.800000011920929,
                    0.800000011920929,
                    0.800000011920929,
                    1
                ],
                "roughnessFactor" : 0.22499999403953552
            }
        },
        {
            "alphaMode" : "BLEND",
            "doubleSided" : true,
            "name" : "Material.003",
            "pbrMetallicRoughness" : {
                "baseColorFactor" : [
                    0.800000011920929,
                    0.800000011920929,
                    0.800000011920929,
                    0.5333333611488342
                ],
                "roughnessFactor" : 0
            }
        },
        {
            "doubleSided" : true,
            "emissiveFactor" : [
                1,
                0,
                0.011251990217715502
            ],
            "name" : "Material.004",
            "pbrMetallicRoughness" : {}
        },
        {
            "doubleSided" : true,
            "emissiveFactor" : [
                1,
                1,
                1
            ],
            "name" : "Material.005",
            "pbrMetallicRoughness" : {}
        },
        {
            "doubleSided" : true,
            "name" : "Material.006",
            "pbrMetallicRoughness" : {
                "baseColorFactor" : [
                    0,
                    0,
                    0,
                    1
                ],
                "metallicFactor" : 0,
                "roughnessFactor" : 0.5
            }
        },
        {
            "doubleSided" : true,
            "name" : "Material.007",
            "pbrMetallicRoughness" : {
                "baseColorFactor" : [
                    0,
                    0,
                    0,
                    1
                ],
                "metallicFactor" : 0,
                "roughnessFactor" : 0.5
            }
        },
        {
            "doubleSided" : true,
            "emissiveFactor" : [
                1,
                1,
                0
            ],
            "name" : "Material.008",
            "pbrMetallicRoughness" : {}
        }
    ],
    "meshes" : [
        {
            "name" : "Cube",
            "primitives" : [
                {
                    "attributes" : {
                        "POSITION" : 0,
                        "NORMAL" : 1,
                        "TEXCOORD_0" : 2
                    },
                    "indices" : 3,
                    "material" : 0
                },
                {
                    "attributes" : {
                        "POSITION" : 4,
                        "NORMAL" : 5,
                        "TEXCOORD_0" : 6
                    },
                    "indices" : 7,
                    "material" : 1
                },
                {
                    "attributes" : {
                        "POSITION" : 8,
                        "NORMAL" : 9,
                        "TEXCOORD_0" : 10
                    },
                    "indices" : 11,
                    "material" : 2
                },
                {
                    "attributes" : {
                        "POSITION" : 12,
                        "NORMAL" : 13,
                        "TEXCOORD_0" : 14
                    },
                    "indices" : 15,
                    "material" : 3
                },
                {
                    "attributes" : {
                        "POSITION" : 16,
                        "NORMAL" : 17,
                        "TEXCOORD_0" : 18
                    },
                    "indices" : 19,
                    "material" : 4
                },
                {
                    "attributes" : {
                        "POSITION" : 20,
                        "NORMAL" : 21,
                        "TEXCOORD_0" : 22
                    },
                    "indices" : 23,
                    "material" : 5
                },
                {
                    "attributes" : {
                        "POSITION" : 24,
                        "NORMAL" : 25,
                        "TEXCOORD_0" : 26
                    },
                    "indices" : 27,
                    "material" : 6
                },
                {
                    "attributes" : {
                        "POSITION" : 28,
                        "NORMAL" : 29,
                        "TEXCOORD_0" : 30
                    },
                    "indices" : 31,
                    "material" : 7
                }
            ]
        }
    ],
    "accessors" : [
        {
            "bufferView" : 0,
            "componentType" : 5126,
            "count" : 786,
            "max" : [
                2.5387494564056396,
                2.5437257289886475,
                1.0734812021255493
            ],
            "min" : [
                -2.5387494564056396,
                -1.0131537914276123,
                -0.9585044384002686
            ],
            "type" : "VEC3"
        },
        {
            "bufferView" : 1,
            "componentType" : 5126,
            "count" : 786,
            "type" : "VEC3"
        },
        {
            "bufferView" : 2,
            "componentType" : 5126,
            "count" : 786,
            "type" : "VEC2"
        },
        {
            "bufferView" : 3,
            "componentType" : 5123,
            "count" : 2160,
            "type" : "SCALAR"
        },
        {
            "bufferView" : 4,
            "componentType" : 5126,
            "count" : 1583,
            "max" : [
                2.7283172607421875,
                2.365534543991089,
                1.0682114362716675
            ],
            "min" : [
                -2.7283172607421875,
                -1.0135899782180786,
                -0.969059944152832
            ],
            "type" : "VEC3"
        },
        {
            "bufferView" : 5,
            "componentType" : 5126,
            "count" : 1583,
            "type" : "VEC3"
        },
        {
            "bufferView" : 6,
            "componentType" : 5126,
            "count" : 1583,
            "type" : "VEC2"
        },
        {
            "bufferView" : 7,
            "componentType" : 5123,
            "count" : 4776,
            "type" : "SCALAR"
        },
        {
            "bufferView" : 8,
            "componentType" : 5126,
            "count" : 46,
            "max" : [
                2.2440152168273926,
                2.4628491401672363,
                0.46492132544517517
            ],
            "min" : [
                -2.2440152168273926,
                1.0731260776519775,
                -0.5695913434028625
            ],
            "type" : "VEC3"
        },
        {
            "bufferView" : 9,
            "componentType" : 5126,
            "count" : 46,
            "type" : "VEC3"
        },
        {
            "bufferView" : 10,
            "componentType" : 5126,
            "count" : 46,
            "type" : "VEC2"
        },
        {
            "bufferView" : 11,
            "componentType" : 5123,
            "count" : 102,
            "type" : "SCALAR"
        },
        {
            "bufferView" : 12,
            "componentType" : 5126,
            "count" : 156,
            "max" : [
                2.051298141479492,
                1.0734338760375977,
                -0.8696190714836121
            ],
            "min" : [
                -2.051298141479492,
                0.4016588032245636,
                -0.9373962879180908
            ],
            "type" : "VEC3"
        },
        {
            "bufferView" : 13,
            "componentType" : 5126,
            "count" : 156,
            "type" : "VEC3"
        },
        {
            "bufferView" : 14,
            "componentType" : 5126,
            "count" : 156,
            "type" : "VEC2"
        },
        {
            "bufferView" : 15,
            "componentType" : 5123,
            "count" : 360,
            "type" : "SCALAR"
        },
        {
            "bufferView" : 16,
            "componentType" : 5126,
            "count" : 128,
            "max" : [
                1.9962600469589233,
                0.5416992902755737,
                1.0528080463409424
            ],
            "min" : [
                -1.9962600469589233,
                0.05622178316116333,
                1.0386146306991577
            ],
            "type" : "VEC3"
        },
        {
            "bufferView" : 17,
            "componentType" : 5126,
            "count" : 128,
            "type" : "VEC3"
        },
        {
            "bufferView" : 18,
            "componentType" : 5126,
            "count" : 128,
            "type" : "VEC2"
        },
        {
            "bufferView" : 19,
            "componentType" : 5123,
            "count" : 552,
            "type" : "SCALAR"
        },
        {
            "bufferView" : 20,
            "componentType" : 5126,
            "count" : 527,
            "max" : [
                2.2609360218048096,
                2.0081076622009277,
                1.0542939901351929
            ],
            "min" : [
                -2.2609360218048096,
                -0.7970194816589355,
                -0.9362858533859253
            ],
            "type" : "VEC3"
        },
        {
            "bufferView" : 21,
            "componentType" : 5126,
            "count" : 527,
            "type" : "VEC3"
        },
        {
            "bufferView" : 22,
            "componentType" : 5126,
            "count" : 527,
            "type" : "VEC2"
        },
        {
            "bufferView" : 23,
            "componentType" : 5123,
            "count" : 1326,
            "type" : "SCALAR"
        },
        {
            "bufferView" : 24,
            "componentType" : 5126,
            "count" : 319,
            "max" : [
                2.5083703994750977,
                1.2589540481567383,
                0.9529722332954407
            ],
            "min" : [
                -2.5083703994750977,
                -1.0131537914276123,
                -0.875791072845459
            ],
            "type" : "VEC3"
        },
        {
            "bufferView" : 25,
            "componentType" : 5126,
            "count" : 319,
            "type" : "VEC3"
        },
        {
            "bufferView" : 26,
            "componentType" : 5126,
            "count" : 319,
            "type" : "VEC2"
        },
        {
            "bufferView" : 27,
            "componentType" : 5123,
            "count" : 1002,
            "type" : "SCALAR"
        },
        {
            "bufferView" : 28,
            "componentType" : 5126,
            "count" : 80,
            "max" : [
                2.3767712116241455,
                0.07107936590909958,
                0.8749212622642517
            ],
            "min" : [
                -2.3767712116241455,
                -0.2588456869125366,
                -0.7876889109611511
            ],
            "type" : "VEC3"
        },
        {
            "bufferView" : 29,
            "componentType" : 5126,
            "count" : 80,
            "type" : "VEC3"
        },
        {
            "bufferView" : 30,
            "componentType" : 5126,
            "count" : 80,
            "type" : "VEC2"
        },
        {
            "bufferView" : 31,
            "componentType" : 5123,
            "count" : 120,
            "type" : "SCALAR"
        }
    ],
    "bufferViews" : [
        {
            "buffer" : 0,
            "byteLength" : 9432,
            "byteOffset" : 0
        },
        {
            "buffer" : 0,
            "byteLength" : 9432,
            "byteOffset" : 9432
        },
        {
            "buffer" : 0,
            "byteLength" : 6288,
            "byteOffset" : 18864
        },
        {
            "buffer" : 0,
            "byteLength" : 4320,
            "byteOffset" : 25152
        },
        {
            "buffer" : 0,
            "byteLength" : 18996,
            "byteOffset" : 29472
        },
        {
            "buffer" : 0,
            "byteLength" : 18996,
            "byteOffset" : 48468
        },
        {
            "buffer" : 0,
            "byteLength" : 12664,
            "byteOffset" : 67464
        },
        {
            "buffer" : 0,
            "byteLength" : 9552,
            "byteOffset" : 80128
        },
        {
            "buffer" : 0,
            "byteLength" : 552,
            "byteOffset" : 89680
        },
        {
            "buffer" : 0,
            "byteLength" : 552,
            "byteOffset" : 90232
        },
        {
            "buffer" : 0,
            "byteLength" : 368,
            "byteOffset" : 90784
        },
        {
            "buffer" : 0,
            "byteLength" : 204,
            "byteOffset" : 91152
        },
        {
            "buffer" : 0,
            "byteLength" : 1872,
            "byteOffset" : 91356
        },
        {
            "buffer" : 0,
            "byteLength" : 1872,
            "byteOffset" : 93228
        },
        {
            "buffer" : 0,
            "byteLength" : 1248,
            "byteOffset" : 95100
        },
        {
            "buffer" : 0,
            "byteLength" : 720,
            "byteOffset" : 96348
        },
        {
            "buffer" : 0,
            "byteLength" : 1536,
            "byteOffset" : 97068
        },
        {
            "buffer" : 0,
            "byteLength" : 1536,
            "byteOffset" : 98604
        },
        {
            "buffer" : 0,
            "byteLength" : 1024,
            "byteOffset" : 100140
        },
        {
            "buffer" : 0,
            "byteLength" : 1104,
            "byteOffset" : 101164
        },
        {
            "buffer" : 0,
            "byteLength" : 6324,
            "byteOffset" : 102268
        },
        {
            "buffer" : 0,
            "byteLength" : 6324,
            "byteOffset" : 108592
        },
        {
            "buffer" : 0,
            "byteLength" : 4216,
            "byteOffset" : 114916
        },
        {
            "buffer" : 0,
            "byteLength" : 2652,
            "byteOffset" : 119132
        },
        {
            "buffer" : 0,
            "byteLength" : 3828,
            "byteOffset" : 121784
        },
        {
            "buffer" : 0,
            "byteLength" : 3828,
            "byteOffset" : 125612
        },
        {
            "buffer" : 0,
            "byteLength" : 2552,
            "byteOffset" : 129440
        },
        {
            "buffer" : 0,
            "byteLength" : 2004,
            "byteOffset" : 131992
        },
        {
            "buffer" : 0,
            "byteLength" : 960,
            "byteOffset" : 133996
        },
        {
            "buffer" : 0,
            "byteLength" : 960,
            "byteOffset" : 134956
        },
        {
            "buffer" : 0,
            "byteLength" : 640,
            "byteOffset" : 135916
        },
        {
            "buffer" : 0,
            "byteLength" : 240,
            "byteOffset" : 136556
        }
    ],
    "buffers" : [
        {
            "byteLength" : 136796,
            "uri" : "carnew.bin"
        }
    ]
}
