<svg id="Layer_1" data-name="Layer 1" xmlns="http://www.w3.org/2000/svg" viewBox="0 0 243.65 314.63"><title>homepage</title><path d="M613.67,610.82v29.55l16.7-16c3.23,11.73,3.23,11.73-.8,16.47l4.16-.4a29.11,29.11,0,0,1,1.07,3.19c.47,2.24.81,4.52,1.2,6.74-38.79,11.44-93.56-1.08-124-48.89C482.38,554.89,491,494,532.38,456.18c39.54-36.11,101.55-38.55,144.61-5.45,45.4,34.9,53.06,92,36.55,131l-8.84-3.89c2.19-10.51,4.31-20.66,6.54-31.34h-37c-.74,5.59-1.47,11.12-2.36,17.77-3.71-2.22-8.26-3.39-9.47-6.07-1.37-3,.27-7.41.64-11.61H613.81V566.7l4.82.55L621,577.71l-7.2.43v22.05c4.13.86,8.67.81,11.86,2.85,1.91,1.22,1.71,5.73,2.6,9.33Zm-98.92-27.36c9.9-2.93,19.41-5.68,28.85-8.65,1-.31,2.31-2.1,2.17-3-1.27-8.47-2.82-16.89-4.29-25.27H505.82C506.12,559.84,509.51,572,514.75,583.46Zm26.93-48.41c1.47-9.56,2.84-18.49,4.17-27.19l-31.06-9.7c-5.22,11.63-8.69,23.67-9,36.89Zm168.58,0c-.4-13.38-3.76-25.37-9-36.93l-31.08,9.78c1.4,9,2.79,18,4.22,27.15ZM556.49,571.22l46.06-5V546.53h-50C553.93,555.12,555.22,563.24,556.49,571.22Zm-4-36.18h49.91V515.53l-45.84-5C555.31,518.21,554,526.29,552.51,535Zm61.11-.1h50c-1.48-8.67-2.88-16.84-4.17-24.39l-45.78,5Zm-54.16,46.82c4.49,8.63,8.09,15.69,11.9,22.64a3.74,3.74,0,0,0,3.2,1.28c9.21-1.84,18.39-3.88,27.9-5.93V577.21Zm0-81.77,43.1,4.59V482.05c-9.54-2.05-18.73-4.07-28-5.94-.92-.19-2.6.25-3,.93C567.71,484.21,564,491.5,559.49,500Zm97.06,0c-4.41-8.42-8.16-15.71-12.11-22.89-.37-.68-2.05-1.13-3-.95C632.25,478,623.05,480,613.93,482V504.6ZM518.66,488.09,549,497.36l12.56-25.94L543,460.35Zm154.49-27.71-18.73,11.05c4.21,8.64,8.32,17.09,12.66,26l30.29-9.35ZM561.57,610.48c-3.6-7.73-7.14-15.56-11-23.25-.53-1.06-2.65-2.27-3.64-2-8.89,2.44-17.69,5.19-28.36,8.41L543,621.37Zm16.7,4.21c7.74,9.83,15,18.19,24.25,25.14V610.34Zm24.34-172-1.1-.95L577.41,467l25.2,4.42ZM615,442l-1.16.6V471.4l24.75-4.48Zm-29.5,199.94.58-1.36c-6.14-7.07-12.28-14.15-18.65-21.47l-14.14,8L553,628.6ZM553.14,453.15l.25,1.78,14.14,7.74,18.15-21.25-.81-1.47ZM662.63,455l.49-1.78L631,439.91l-.7,1.44,18.29,21.37Z" transform="translate(-494.46 -427.42)"/><path d="M702.07,622.31c11,13.45,21.79,26.71,32.65,39.92,4.71,5.73,4.65,7-1.07,11.67-4.37,3.58-8.7,7.23-13.1,10.78s-6,3.34-9.53-.9q-15.51-18.91-31-37.85c-.82-1-1.72-1.93-2.87-3.22-6.9,8.22-13.52,16.31-20.42,24.15-1.47,1.68-4.45,3.83-5.87,3.33-1.89-.68-3.76-3.56-4.23-5.79q-11-51.33-21.48-102.77c-.44-2.14,0-5.58,1.44-6.67s4.8-.66,6.85.21q47.82,20.36,95.46,41.12c2.31,1,5.37,3.45,5.49,5.39s-2.86,4.44-5,5.71C720.45,612.53,711.32,617.29,702.07,622.31Z" transform="translate(-494.46 -427.42)"/><path d="M502.73,710.18h7.09v12.05h8.48V710.18h7.1v31.29h-7.1V728.41h-8.48v13.06h-7.09Z" transform="translate(-494.46 -427.42)"/><path d="M530.28,725.68c0-10.45,5.13-16.07,12.58-16.07s12.58,5.62,12.58,16.07c0,10.7-5.13,16.36-12.58,16.36S530.28,736.38,530.28,725.68Zm17.9,0c0-6.5-2-10-5.32-10s-5.32,3.46-5.32,10c0,6.75,2.06,10.25,5.32,10.25S548.18,732.43,548.18,725.68Z" transform="translate(-494.46 -427.42)"/><path d="M560,710.18h7.43l3.06,11.09,1.06,4.33h.19l1-4.33,3.08-11.09h7.43v31.29h-6v-9.69c0-3.52.62-11.15,1-14.53h-.14l-2.4,8.4-2.44,7.53h-3.43l-2.48-7.53-2.24-8.4H565c.35,3.38.95,11,.95,14.53v9.69H560Z" transform="translate(-494.46 -427.42)"/><path d="M590.49,710.18h20.74v5.94H597.57v6.27h11.61v5.94H597.57v7.2h14.14v5.94H590.49Z" transform="translate(-494.46 -427.42)"/><path d="M618.44,710.18h11.1c6.79,0,12.25,2.46,12.25,10.07,0,7.36-5.62,10.61-12.25,10.61h-4v10.61h-7.08Zm10.69,15.06c3.88,0,5.72-1.74,5.72-5s-2-4.45-5.72-4.45h-3.61v9.44Z" transform="translate(-494.46 -427.42)"/><path d="M653.82,710.18h8.48l9.75,31.29h-7.51l-4-15.84c-.79-3.12-1.74-6.79-2.5-10.09h-.19c-.76,3.3-1.63,7-2.43,10.09l-4.06,15.84h-7.25Zm-3.3,18.33h15V734h-15Z" transform="translate(-494.46 -427.42)"/><path d="M674.55,726c0-10.45,6.37-16.39,14.49-16.39a12.39,12.39,0,0,1,9.14,4l-3.9,4.38a6.77,6.77,0,0,0-5.24-2.25c-4.1,0-7.18,3.78-7.18,10,0,6.43,2.53,10.16,7.47,10.16a4.82,4.82,0,0,0,3-.92V729.6h-4.54v-5.77H698.7v14.43a15,15,0,0,1-9.79,3.78C680.92,742,674.55,736.55,674.55,726Z" transform="translate(-494.46 -427.42)"/><path d="M705.69,710.18h20.74v5.94H712.77v6.27h11.6v5.94h-11.6v7.2h14.14v5.94H705.69Z" transform="translate(-494.46 -427.42)"/></svg>