{
    "asset" : {
        "generator" : "Khronos glTF Blender I/O v1.5.17",
        "version" : "2.0"
    },
    "scene" : 0,
    "scenes" : [
        {
            "name" : "Scene",
            "nodes" : [
                0
            ]
        }
    ],
    "nodes" : [
        {
            "mesh" : 0,
            "name" : "road"
        }
    ],
    "materials" : [
        {
            "doubleSided" : true,
            "name" : "tarmac",
            "pbrMetallicRoughness" : {
                "baseColorFactor" : [
                    0.2079170197248459,
                    0.2079170197248459,
                    0.2079170197248459,
                    1
                ],
                "metallicFactor" : 0,
                "roughnessFactor" : 0.5
            }
        },
        {
            "doubleSided" : true,
            "name" : "pavement",
            "pbrMetallicRoughness" : {
                "baseColorFactor" : [
                    0.23301579058170319,
                    0.12868621945381165,
                    0.055772196501493454,
                    1
                ],
                "metallicFactor" : 0,
                "roughnessFactor" : 0.5
            }
        },
        {
            "doubleSided" : true,
            "name" : "dashes",
            "pbrMetallicRoughness" : {
                "metallicFactor" : 0,
                "roughnessFactor" : 0
            }
        },
        {
            "doubleSided" : true,
            "name" : "Material.010",
            "pbrMetallicRoughness" : {
                "baseColorFactor" : [
                    0.017387786880135536,
                    0.017387786880135536,
                    0.017387786880135536,
                    1
                ],
                "metallicFactor" : 0,
                "roughnessFactor" : 0.5
            }
        }
    ],
    "meshes" : [
        {
            "name" : "road",
            "primitives" : [
                {
                    "attributes" : {
                        "POSITION" : 0,
                        "NORMAL" : 1,
                        "TEXCOORD_0" : 2
                    },
                    "indices" : 3,
                    "material" : 0
                },
                {
                    "attributes" : {
                        "POSITION" : 4,
                        "NORMAL" : 5,
                        "TEXCOORD_0" : 6
                    },
                    "indices" : 7,
                    "material" : 1
                },
                {
                    "attributes" : {
                        "POSITION" : 8,
                        "NORMAL" : 9,
                        "TEXCOORD_0" : 10
                    },
                    "indices" : 11,
                    "material" : 2
                },
                {
                    "attributes" : {
                        "POSITION" : 12,
                        "NORMAL" : 13,
                        "TEXCOORD_0" : 14
                    },
                    "indices" : 15,
                    "material" : 3
                }
            ]
        }
    ],
    "accessors" : [
        {
            "bufferView" : 0,
            "componentType" : 5126,
            "count" : 1606,
            "max" : [
                18.732379913330078,
                4.574821472167969,
                17.214244842529297
            ],
            "min" : [
                -18.732379913330078,
                -1,
                -17.24483299255371
            ],
            "type" : "VEC3"
        },
        {
            "bufferView" : 1,
            "componentType" : 5126,
            "count" : 1606,
            "type" : "VEC3"
        },
        {
            "bufferView" : 2,
            "componentType" : 5126,
            "count" : 1606,
            "type" : "VEC2"
        },
        {
            "bufferView" : 3,
            "componentType" : 5123,
            "count" : 3192,
            "type" : "SCALAR"
        },
        {
            "bufferView" : 4,
            "componentType" : 5126,
            "count" : 384,
            "max" : [
                17.224292755126953,
                0.25959956645965576,
                17.214244842529297
            ],
            "min" : [
                -17.224292755126953,
                0,
                -17.24203109741211
            ],
            "type" : "VEC3"
        },
        {
            "bufferView" : 5,
            "componentType" : 5126,
            "count" : 384,
            "type" : "VEC3"
        },
        {
            "bufferView" : 6,
            "componentType" : 5126,
            "count" : 384,
            "type" : "VEC2"
        },
        {
            "bufferView" : 7,
            "componentType" : 5123,
            "count" : 576,
            "type" : "SCALAR"
        },
        {
            "bufferView" : 8,
            "componentType" : 5126,
            "count" : 376,
            "max" : [
                18.732379913330078,
                26.727874755859375,
                17.214244842529297
            ],
            "min" : [
                -18.732379913330078,
                -1,
                -17.24483299255371
            ],
            "type" : "VEC3"
        },
        {
            "bufferView" : 9,
            "componentType" : 5126,
            "count" : 376,
            "type" : "VEC3"
        },
        {
            "bufferView" : 10,
            "componentType" : 5126,
            "count" : 376,
            "type" : "VEC2"
        },
        {
            "bufferView" : 11,
            "componentType" : 5123,
            "count" : 564,
            "type" : "SCALAR"
        },
        {
            "bufferView" : 12,
            "componentType" : 5126,
            "count" : 374,
            "max" : [
                17.875446319580078,
                26.148618698120117,
                11.893485069274902
            ],
            "min" : [
                -17.875446319580078,
                0.6501579284667969,
                -11.815333366394043
            ],
            "type" : "VEC3"
        },
        {
            "bufferView" : 13,
            "componentType" : 5126,
            "count" : 374,
            "type" : "VEC3"
        },
        {
            "bufferView" : 14,
            "componentType" : 5126,
            "count" : 374,
            "type" : "VEC2"
        },
        {
            "bufferView" : 15,
            "componentType" : 5123,
            "count" : 564,
            "type" : "SCALAR"
        }
    ],
    "bufferViews" : [
        {
            "buffer" : 0,
            "byteLength" : 19272,
            "byteOffset" : 0
        },
        {
            "buffer" : 0,
            "byteLength" : 19272,
            "byteOffset" : 19272
        },
        {
            "buffer" : 0,
            "byteLength" : 12848,
            "byteOffset" : 38544
        },
        {
            "buffer" : 0,
            "byteLength" : 6384,
            "byteOffset" : 51392
        },
        {
            "buffer" : 0,
            "byteLength" : 4608,
            "byteOffset" : 57776
        },
        {
            "buffer" : 0,
            "byteLength" : 4608,
            "byteOffset" : 62384
        },
        {
            "buffer" : 0,
            "byteLength" : 3072,
            "byteOffset" : 66992
        },
        {
            "buffer" : 0,
            "byteLength" : 1152,
            "byteOffset" : 70064
        },
        {
            "buffer" : 0,
            "byteLength" : 4512,
            "byteOffset" : 71216
        },
        {
            "buffer" : 0,
            "byteLength" : 4512,
            "byteOffset" : 75728
        },
        {
            "buffer" : 0,
            "byteLength" : 3008,
            "byteOffset" : 80240
        },
        {
            "buffer" : 0,
            "byteLength" : 1128,
            "byteOffset" : 83248
        },
        {
            "buffer" : 0,
            "byteLength" : 4488,
            "byteOffset" : 84376
        },
        {
            "buffer" : 0,
            "byteLength" : 4488,
            "byteOffset" : 88864
        },
        {
            "buffer" : 0,
            "byteLength" : 2992,
            "byteOffset" : 93352
        },
        {
            "buffer" : 0,
            "byteLength" : 1128,
            "byteOffset" : 96344
        }
    ],
    "buffers" : [
        {
            "byteLength" : 97472,
            "uri" : "roadnew.bin"
        }
    ]
}
