<svg id="Layer_1" data-name="Layer 1" xmlns="http://www.w3.org/2000/svg" viewBox="0 0 594.11 585.66"><title>SPLASH</title><path d="M408.35,589h-45a35.29,35.29,0,0,0-16,0h-19c-1.33-.88-2.85-.79-4.34-.79q-23.65,0-47.32,0c-1.49,0-3-.1-4.34.77h-5a134.48,134.48,0,0,0-31,0h-19c-3.84-1.6-7.86-.72-11.77-.67-9.41.13-18.86-1-28.23.67h-14c.71-3.44-2-5-3.92-6.91C150.49,573,140.61,565,131.65,556q-38-38.33-76.32-76.27c-8-7.95-15.49-16.35-21.33-26-7.94-13.11-10.22-27.49-9.94-42.8a71.48,71.48,0,0,1,20.83-50c34.84-35.75,70.28-70.91,105.82-106,33.28-32.82,65.08-67.17,100-98.33a54,54,0,0,1,21.63-11.68A79.38,79.38,0,0,1,287.14,142c3.81-.3,8-2.59,11-1.48,6,2.16,12.18,1.4,18.25,2.88A81.85,81.85,0,0,1,353,163.27c19.29,17.71,36.83,37.22,55.53,55.57,29.83,29.28,59.59,58.64,88.42,88.92,18.62,19.55,39.07,37.31,56.74,57.81A77.6,77.6,0,0,1,567,388.26c4.7,12,5.06,24.69,3.86,37.2a64.88,64.88,0,0,1-6,21.27c-5.13,10.77-12.87,19.78-21.4,28.29-30.06,30-60.65,59.42-89.79,90.31-7.49,7.94-16.67,14.14-23.47,22.79C422.88,588.8,415.55,587.2,408.35,589Zm-263-224.52c1.58,11.39,4.33,22.82,9.88,33.4,1.38,2.64,3.31,5.62,6.25,6.13,5.41.94,6.65,4.6,7.53,9,.45,2.27,1.09,4.52,1.75,6.75,1.81,6.19,3.47,7.13,9.84,5.51,3.39-.87,6.75-1.84,10.08-2.87s4.51-3.27,3.71-6.56c-1-4.2-2.05-8.41-3.29-12.54-.84-2.8-.28-4.25,2.76-5.07,23.93-6.43,47.84-12.9,71.69-19.61,3.72-1.05,4.73.34,5.49,3.38,1,4,2.09,8.06,3.41,12,.93,2.79,2.91,4.55,6.12,3.7,4.33-1.14,8.64-2.39,12.92-3.71,3.5-1.08,4.63-3.49,3.63-7-1.15-4-2.16-8-3.37-12-.69-2.23-.73-4,1.15-5.88a13.87,13.87,0,0,0,3.87-13.35c-3.21-14.47-3.86-29.5-17.91-40-9.32-6.94-15.1-18.17-21.54-28.12-5.82-9-14.46-13-24.66-10.26C214,283,193.38,288.77,172.69,294.24c-8,2.12-15,5.38-18.12,13.66-1.92,5.15-1.73,10.77-2.57,16.17-1.85,11.87,0,24.37-5.87,35.6C145.47,360.92,145.62,362.59,145.33,364.48Zm201,135.71c-8.48.1-15.35.25-21.75,3-4.59,1.95-5,4.94-1.61,8.52,3.06,3.2,7,5.14,10.95,6.81,16.16,6.79,33.13,9.87,50.53,10.88,6.83.39,13.66.43,20.37-1.13,3.22-.74,7-1.34,7.73-5.29s-2.94-5.56-5.49-7.54a21.11,21.11,0,0,0-3.43-2,98.91,98.91,0,0,0-25-8.45c-3.38-.66-4.4-1.84-3.74-5.35,2.67-14.23,5.07-28.52,7.55-42.79,2.7-15.56,5.58-31.1,7.89-46.72.46-3.11,1.14-4.07,4-3.86a31.93,31.93,0,0,0,17.11-4C434.6,390,445,369.59,447.38,344.54c.91-9.6-1-19.22-2.22-28.79-1.34-10.39-3.51-20.62-5.5-30.88-.42-2.18-1.52-3.27-4-3.68-17.87-2.95-35.73-6-53.54-9.28-3.33-.61-5,.49-6.48,3-3,5.18-6.07,10.33-9.05,15.52-6.81,11.83-13.46,23.84-17.89,36.73a66.27,66.27,0,0,0-.05,42.85c4.4,13.5,12.2,24.35,25.09,31.23,7.15,3.82,7.44,5.4,5.17,14.53-.23.95-.57,1.87-.74,2.83-4.65,26.57-9.33,53.13-13.84,79.72-.48,2.82-1.52,3.64-4.24,3.29C355,501,349.87,500.55,346.36,500.19ZM202.1,494.92c6.18.71,12.4,1.26,18.13,4.05,8.56,4.17,10.54,11.67,5,19.29a38.62,38.62,0,0,1-10.09,9.57c-5,3.26-10.11,6.35-15.06,9.67-1.15.78-3.95,1-2.64,3.31,1.17,2,3.47,2.45,5.72,1.31,2.82-1.43,5.66-2.83,8.42-4.37,11.44-6.38,23.7-11.58,32.78-21.51,6.92-7.55,7-16.39-2.72-21.72-5.49-3-11.52-4.21-17.64-5-18-2.48-36.22-2.05-54.23-4.3-6.79-.85-13.53-2-19.67-5.26-7.86-4.12-9.49-11-4.51-18.31a37.57,37.57,0,0,1,8-8.22c7.32-5.83,15.47-10.35,23.55-15,1.12-.64,2.93-1,2.39-2.64a3.87,3.87,0,0,0-3.66-2.21,8.7,8.7,0,0,0-4.08,1.5c-6.95,3.85-14.1,7.35-21,11.28-8.8,5-17.88,9.75-24.62,17.62-2.1,2.45-4.33,4.84-4.68,8.46-.76,7.79,5.6,13.6,12.38,15a260.72,260.72,0,0,0,47.8,5.17C188.5,492.8,195.25,494.17,202.1,494.92ZM336.56,477.8c.09-7.31-3.86-12.07-11.06-14.54-9.85-3.39-20.13-4.28-30.43-5-13.77-.92-27.6-1.16-41.28-3.17-6.25-.92-12.44-2.26-17.89-5.79s-7.17-8.8-4.52-14.62a25.14,25.14,0,0,1,5.64-7.55c7.87-7.62,17.63-12.44,26.75-18.21,1.21-.77,4-.7,2.87-3a3.59,3.59,0,0,0-5.19-1.44c-14.24,7.88-29.37,14.25-42.28,24.36-5.5,4.31-11.24,9.21-9.45,17.37,1.82,8.32,9.09,10.37,16.12,12.17,14.47,3.7,29.37,3.44,44.12,4.54,12.26.9,24.68,1,36.27,5.85,11,4.63,12.76,13.36,4.75,22.06-6.65,7.22-15.05,12-23.27,17-1.27.79-3.77,1-2.68,3.22a3.56,3.56,0,0,0,5.16,1.49c13.34-7.12,27.23-13.33,38.91-23.2C333.1,486,336.25,482,336.56,477.8Z" transform="translate(-0.58 -116.84)" style="fill:#f3d232"/><path d="M146.35,589a4.73,4.73,0,0,0-3.82-.82c-8.42,2.14-13.61-3.28-18.76-8.21-6.89-6.61-13.16-13.88-20.09-20.44-22.33-21.15-43.45-43.51-65.47-65C26.26,482.94,14.75,470.85,8.75,455,5.26,445.73,2,436.44,1,426.23a137.59,137.59,0,0,1,.5-26.72,86.08,86.08,0,0,1,10.35-32.46c8.78-16.13,21.53-29,34.45-41.73q24.18-23.85,48.14-47.91c23.15-23.17,45.77-46.9,69.55-69.4,17.45-16.51,33.42-34.43,50.77-51,11.16-10.67,22.31-21.46,36.3-28.42a101,101,0,0,1,30.16-9.92c6.9-1,13.76-2.31,20.72-1.62a117.8,117.8,0,0,1,43.59,12.59c19.19,10,33.18,26.14,48.28,40.93,17.38,17,34.35,34.45,51.62,51.57,15.59,15.46,31.47,30.66,46.75,46.39,23.2,23.88,47.39,46.77,70.44,70.79,12.4,12.92,22.13,27.67,27.65,45,5,15.66,5.31,31.82,3,47.64a91.69,91.69,0,0,1-17.48,42c-7.23,9.62-16.27,17.87-24.41,26.79-9,9.83-18.73,18.81-27.81,28.48-7.31,7.78-16.06,14-23.14,22-3.3,3.74-6.82,7.28-10,11.13-4.5,5.49-10.81,8.9-15.47,14.51-2.91,3.51-7.17,6.88-10.78,10.38a2.65,2.65,0,0,1-1.68.88c-6.42-.46-12.94,1.44-19.28-.82.57-3.84,3.84-5.76,6.11-8.35,9.12-10.38,20.43-18.46,30.16-28.22,16.23-16.29,32.6-32.43,48.74-48.81,11.1-11.26,23.27-21.57,33-34,27.64-35.31,24.24-83.59-7.88-115.9Q517,315.29,480.37,278.81q-53-53-106.1-105.88c-9.78-9.73-18.92-20.2-30.8-27.62C311,125.05,265,127.7,233.74,159.8c-29.63,30.42-60,60.11-90.05,90.15-34.85,34.87-70,69.45-104.42,104.74a85.48,85.48,0,0,0-1.5,117.81C53,489,69.15,504.73,85.3,520.38c17.22,16.69,32.81,35,51.89,49.87,6.32,4.9,12,11,15.16,18.75Z" transform="translate(-0.58 -116.84)" style="fill:#f3d232"/><path d="M152.35,589c-3.13-7.8-8.84-13.85-15.16-18.75-19.08-14.82-34.67-33.18-51.89-49.87C69.15,504.73,53,489,37.77,472.5a85.48,85.48,0,0,1,1.5-117.81C73.68,319.4,108.84,284.82,143.69,250c30-30,60.42-59.73,90.05-90.15C265,127.7,311,125.05,343.47,145.31c11.88,7.42,21,17.89,30.8,27.62q53.13,52.84,106.1,105.88Q517,315.37,553.49,352c32.12,32.31,35.52,80.59,7.88,115.9-9.77,12.48-21.94,22.79-33,34-16.14,16.38-32.51,32.52-48.74,48.81-9.73,9.76-21,17.84-30.16,28.22-2.27,2.59-5.54,4.51-6.11,8.35-.78.43-1.86.52-2,1.72h-11a1.07,1.07,0,0,0-.22-.88c6.8-8.65,16-14.85,23.47-22.79C482.74,534.44,513.33,505,543.39,475c8.53-8.51,16.27-17.52,21.4-28.29a64.88,64.88,0,0,0,6-21.27c1.2-12.51.84-25.19-3.86-37.2a77.6,77.6,0,0,0-13.28-22.69C536,345.07,515.57,327.31,497,307.76c-28.83-30.28-58.59-59.64-88.42-88.92C389.83,200.49,372.29,181,353,163.27a81.85,81.85,0,0,0-36.57-19.86c-6.07-1.48-12.26-.72-18.25-2.88-3.08-1.11-7.23,1.18-11,1.48a79.38,79.38,0,0,0-14.82,2.88,54,54,0,0,0-21.63,11.68c-34.9,31.16-66.7,65.51-100,98.33-35.54,35.06-71,70.22-105.82,106a71.48,71.48,0,0,0-20.83,50c-.28,15.31,2,29.69,9.94,42.8,5.84,9.64,13.33,18,21.33,26q38.25,38,76.32,76.27c9,9,18.84,17.08,27.78,26.13,1.88,1.9,4.63,3.47,3.92,6.91Z" transform="translate(-0.58 -116.84)" style="fill:#1e190c"/><path d="M482.67,594.76l-.68.47a16.38,16.38,0,0,0-3.17-8.82,15.26,15.26,0,0,0-12.32-6.24,23.2,23.2,0,0,0-12.25,3.88,12,12,0,0,0-9.64-4.71,13.62,13.62,0,0,0-3.76.54l-14.48,1.51a14.45,14.45,0,0,0-6.73,2.78,12.11,12.11,0,0,0-8-3,12.69,12.69,0,0,0-8.12,3.09,12.17,12.17,0,0,0-6.95-2.2,13.74,13.74,0,0,0-9.5,4,11.19,11.19,0,0,0-1.12-1.27,12.47,12.47,0,0,0-8.94-3.65,13.26,13.26,0,0,0-4.54.79,12,12,0,0,0-4.1-.73c-5.52,0-9.08,3.79-10.47,5.4a17.32,17.32,0,0,0-8.54-5l.69-2.23-3.83,1.7a25.72,25.72,0,0,0-5.83.16,12.78,12.78,0,0,0-3.87-.59,12.61,12.61,0,0,0-10.72,5.9,17.23,17.23,0,0,0-2.11,1.42,19.74,19.74,0,0,0-3.51-2.91l-11.49-3.22a28.44,28.44,0,0,0-17.41,5.9,24.42,24.42,0,0,0-4.69,4.42,12.72,12.72,0,0,0-3-4.92l-.7-.64a12.44,12.44,0,0,0-8-3,16.51,16.51,0,0,0-6.3,1.45l-13.68-5a12.69,12.69,0,0,0-3.92,1.89,12.11,12.11,0,0,0-7.49-2.54,13.62,13.62,0,0,0-3.76.54l-14.48,1.51a14.68,14.68,0,0,0-7.53,3.39l-12.15-2.49a13.44,13.44,0,0,0-5.19,2.21c-.2-.19-.41-.37-.62-.54a12.31,12.31,0,0,0-7.92-2.94c-4.71,0-8.28,2.64-11.37,5.87-.07-.08-.13-.17-.21-.25a17.26,17.26,0,0,0-8.67-5.15l-3.13-.53a25.62,25.62,0,0,0-5.82.16,12.78,12.78,0,0,0-3.87-.59,12.61,12.61,0,0,0-10.72,5.9,17.23,17.23,0,0,0-2.11,1.42,19.74,19.74,0,0,0-3.51-2.91l-11.49-3.22a28.39,28.39,0,0,0-17.4,5.9,21.72,21.72,0,0,0-5.58,5.66l-2,7.05a12.24,12.24,0,0,0,.84,4.21,192.6,192.6,0,0,0-8.55,19.33c-2.08,5.64-2.85,8.73-2.85,11.39a14.16,14.16,0,0,0,3.37,9.15l.12.14a14.67,14.67,0,0,0,11.33,5c5.82,0,11.7-2.29,18-7,.12.16.23.33.35.48l.06.08a12.51,12.51,0,0,0,9.75,4.58,12.89,12.89,0,0,0,9-3.51l.11-.11a12,12,0,0,0,9,4,13.13,13.13,0,0,0,7.56-2.49,13.68,13.68,0,0,0,8,2.52,17.43,17.43,0,0,0,10.12-3.6,13.12,13.12,0,0,0,8.55,3.17,12.2,12.2,0,0,0,5.09-1.09,12.21,12.21,0,0,0,6.12,1.65,13.29,13.29,0,0,0,9.45-4l.25.24,4-1.9,12.68,2.44.27-.21a12.46,12.46,0,0,0,8.32,3.16,12.68,12.68,0,0,0,9.33-4.17,14.76,14.76,0,0,0,7.78,2.13c9.22,0,14.79-8.2,16.57-10.82,3-4.31,4.82-7.77,4.82-11.72a11.81,11.81,0,0,0-6.5-10.71,60.6,60.6,0,0,1,8.27-4,17.12,17.12,0,0,0,4.7-2.21,13.07,13.07,0,0,0,2.62-2.46c0,.13.08.26.13.39A192.6,192.6,0,0,0,276,623.87c-2.08,5.64-2.85,8.73-2.85,11.39a14.16,14.16,0,0,0,3.37,9.15l.12.14a14.65,14.65,0,0,0,11.33,5c5.82,0,11.7-2.28,18-7a5.34,5.34,0,0,0,.35.48l.06.08a12.51,12.51,0,0,0,9.75,4.58,12.89,12.89,0,0,0,9-3.51l.11-.11a12,12,0,0,0,9,4,13.08,13.08,0,0,0,7.56-2.5l.24-.17A12.21,12.21,0,0,0,355.71,643a14.7,14.7,0,0,0,1.84,2.66l15,3.77a13.11,13.11,0,0,0,5.43-3.91,26.4,26.4,0,0,0,2.48-3.69.31.31,0,0,1,.07.09,12.66,12.66,0,0,0,9.77,4.69,12.3,12.3,0,0,0,5-1.07A12.18,12.18,0,0,0,403,648.3a13.27,13.27,0,0,0,9.45-4l.24.23,16.65.55a17.21,17.21,0,0,0,3.22-3.06c.32-.39.63-.8.92-1.23.25.19.49.4.75.58a22.51,22.51,0,0,0-1.27,7,13,13,0,0,0,2.59,7.85l.12.16a12.57,12.57,0,0,0,10,4.84A12.76,12.76,0,0,0,456,656.18l.06-.09a16.23,16.23,0,0,0,2.62-5.88c0-.11.36-1.21,2-5a78.28,78.28,0,0,1,4.48-9,52.09,52.09,0,0,1,2.82-4.52l.09-.12a14.84,14.84,0,0,0,3.28-9,13.43,13.43,0,0,0-.65-4.17c1-1,2-2,2.86-2.91,5.62-6.18,8.47-12.67,8.47-19.3V596Z" transform="translate(-0.58 -116.84)" style="fill:#c83227;stroke:#f26830;stroke-miterlimit:10;stroke-width:4px"/><path d="M145.33,364.48c.29-1.89.14-3.56.8-4.81,5.91-11.23,4-23.73,5.87-35.6.84-5.4.65-11,2.57-16.17,3.08-8.28,10.1-11.54,18.12-13.66,20.69-5.47,41.31-11.23,61.95-16.85,10.2-2.78,18.84,1.27,24.66,10.26,6.44,10,12.22,21.18,21.54,28.12,14.05,10.48,14.7,25.51,17.91,40a13.87,13.87,0,0,1-3.87,13.35c-1.88,1.84-1.84,3.65-1.15,5.88,1.21,4,2.22,8,3.37,12,1,3.51-.13,5.92-3.63,7-4.28,1.32-8.59,2.57-12.92,3.71-3.21.85-5.19-.91-6.12-3.7-1.32-3.94-2.4-8-3.41-12-.76-3-1.77-4.43-5.49-3.38-23.85,6.71-47.76,13.18-71.69,19.61-3,.82-3.6,2.27-2.76,5.07,1.24,4.13,2.26,8.34,3.29,12.54.8,3.29-.48,5.55-3.71,6.56s-6.69,2-10.08,2.87c-6.37,1.62-8,.68-9.84-5.51-.66-2.23-1.3-4.48-1.75-6.75-.88-4.39-2.12-8.05-7.53-9-2.94-.51-4.87-3.49-6.25-6.13C149.66,387.3,146.91,375.87,145.33,364.48Zm52-31.71c3.35.68,6.19-1.16,9.13-2,4.2-1.14,7.76-1.58,10.79,2.25,1.29,1.62,3,.79,4.63.35,15.61-4.26,31.2-8.59,46.85-12.69,4.16-1.08,4.12-2.76,1.88-5.74-6.11-8.13-12.18-16.29-18.13-24.52-4.3-5.95-8.75-7.83-15.94-5.91q-32.92,8.82-65.8,17.85c-5.32,1.47-9.4,4.76-10.07,10.55-1.3,11.23-2.21,22.52-3.25,33.78-.13,1.33-.21,2.76,1.27,3.49,2.44,1.21,12.21-3.14,12.81-5.8.72-3.25,2.31-4.93,5.87-5.51,4.15-.68,8.14-2.38,13.49-4-10.67-1.65-14.27-5.88-14.6-11.23-.42-7,2.13-12.11,7.94-14.66a13,13,0,0,1,14.62,3.2C204,318,203.71,322.07,197.29,332.77Zm-1.36.81.16-.19-.26,0Z" transform="translate(-0.58 -116.84)" style="fill:#1e190c"/><path d="M346.36,500.19c3.51.36,8.66.78,13.77,1.45,2.72.35,3.76-.47,4.24-3.29,4.51-26.59,9.19-53.15,13.84-79.72.17-1,.51-1.88.74-2.83,2.27-9.13,2-10.71-5.17-14.53-12.89-6.88-20.69-17.73-25.09-31.23a66.27,66.27,0,0,1,.05-42.85c4.43-12.89,11.08-24.9,17.89-36.73,3-5.19,6.05-10.34,9.05-15.52,1.47-2.54,3.15-3.64,6.48-3,17.81,3.3,35.67,6.33,53.54,9.28,2.44.41,3.54,1.5,4,3.68,2,10.26,4.16,20.49,5.5,30.88,1.22,9.57,3.13,19.19,2.22,28.79-2.35,25-12.78,45.49-35.91,57.63a31.93,31.93,0,0,1-17.11,4c-2.85-.21-3.53.75-4,3.86-2.31,15.62-5.19,31.16-7.89,46.72-2.48,14.27-4.88,28.56-7.55,42.79-.66,3.51.36,4.69,3.74,5.35a98.91,98.91,0,0,1,25,8.45,21.11,21.11,0,0,1,3.43,2c2.55,2,6.26,3.48,5.49,7.54s-4.51,4.55-7.73,5.29c-6.71,1.56-13.54,1.52-20.37,1.13-17.4-1-34.37-4.09-50.53-10.88-4-1.67-7.89-3.61-10.95-6.81-3.42-3.58-3-6.57,1.61-8.52C331,500.44,337.88,500.29,346.36,500.19ZM369.51,388a4.91,4.91,0,0,0,2.23,5.54c10.33,7.27,21.93,8.09,33.52,5.1,7.71-2,14.53-6.69,20.25-12.51,12.76-13,18.39-29,18.36-46.87,0-17.39-3.75-34.37-7-51.37-.48-2.48-1.64-3.64-4.19-4.06q-24.41-4.08-48.74-8.46c-2.92-.53-4.56.26-6.11,2.79-7.63,12.52-14.58,25.39-21.13,38.5-7.5,15-8.39,30.7-5.21,46.75,1.64,8.28,5.92,15.55,11.38,22,1.3,1.52,2.55,5.28,5.1,3.11,2.31-2-.88-4-2.12-5.73-.28-.41-.66-.76-1-1.15-10.53-13.63-13.21-29.13-10.65-45.78.27-1.77.3-4.07,2.89-4.77,14.34-3.85,28.48-5.41,42.08,2.75,11.48,6.9,23.74,11.26,37.39,10.65,3.18-.14,3.85,1.1,3.26,4.28a77.71,77.71,0,0,1-9.28,25,43.77,43.77,0,0,1-40.89,21.77C382.21,394.86,376.31,390.65,369.51,388Z" transform="translate(-0.58 -116.84)" style="fill:#1e190c"/><path d="M202.1,494.92c-6.85-.75-13.6-2.12-20.53-2.3a260.72,260.72,0,0,1-47.8-5.17c-6.78-1.44-13.14-7.25-12.38-15,.35-3.62,2.58-6,4.68-8.46,6.74-7.87,15.82-12.6,24.62-17.62,6.9-3.93,14.05-7.43,21-11.28a8.7,8.7,0,0,1,4.08-1.5,3.87,3.87,0,0,1,3.66,2.21c.54,1.65-1.27,2-2.39,2.64-8.08,4.63-16.23,9.15-23.55,15a37.57,37.57,0,0,0-8,8.22c-5,7.33-3.35,14.19,4.51,18.31,6.14,3.22,12.88,4.41,19.67,5.26,18,2.25,36.24,1.82,54.23,4.3,6.12.84,12.15,2,17.64,5,9.73,5.33,9.64,14.17,2.72,21.72-9.08,9.93-21.34,15.13-32.78,21.51-2.76,1.54-5.6,2.94-8.42,4.37-2.25,1.14-4.55.73-5.72-1.31-1.31-2.28,1.49-2.53,2.64-3.31,4.95-3.32,10.06-6.41,15.06-9.67a38.62,38.62,0,0,0,10.09-9.57c5.59-7.62,3.61-15.12-5-19.29C214.5,496.18,208.28,495.63,202.1,494.92Z" transform="translate(-0.58 -116.84)" style="fill:#1e190c"/><path d="M336.56,477.8c-.31,4.18-3.46,8.23-7.46,11.62-11.68,9.87-25.57,16.08-38.91,23.2a3.56,3.56,0,0,1-5.16-1.49c-1.09-2.21,1.41-2.43,2.68-3.22,8.22-5,16.62-9.8,23.27-17,8-8.7,6.23-17.43-4.75-22.06-11.59-4.87-24-4.95-36.27-5.85-14.75-1.1-29.65-.84-44.12-4.54-7-1.8-14.3-3.85-16.12-12.17-1.79-8.16,3.95-13.06,9.45-17.37,12.91-10.11,28-16.48,42.28-24.36a3.59,3.59,0,0,1,5.19,1.44c1.09,2.28-1.66,2.21-2.87,3-9.12,5.77-18.88,10.59-26.75,18.21a25.14,25.14,0,0,0-5.64,7.55c-2.65,5.82-1,11,4.52,14.62s11.64,4.87,17.89,5.79c13.68,2,27.51,2.25,41.28,3.17,10.3.68,20.58,1.57,30.43,5C332.7,465.73,336.65,470.49,336.56,477.8Z" transform="translate(-0.58 -116.84)" style="fill:#1e190c"/><path d="M197.29,332.77c6.42-10.7,6.7-14.73,1.49-20.59a13,13,0,0,0-14.62-3.2c-5.81,2.55-8.36,7.68-7.94,14.66.33,5.35,3.93,9.58,14.6,11.23-5.35,1.66-9.34,3.36-13.49,4-3.56.58-5.15,2.26-5.87,5.51-.6,2.66-10.37,7-12.81,5.8-1.48-.73-1.4-2.16-1.27-3.49,1-11.26,2-22.55,3.25-33.78.67-5.79,4.75-9.08,10.07-10.55q32.87-9.06,65.8-17.85c7.19-1.92,11.64,0,15.94,5.91,5.95,8.23,12,16.39,18.13,24.52,2.24,3,2.28,4.66-1.88,5.74-15.65,4.1-31.24,8.43-46.85,12.69-1.61.44-3.34,1.27-4.63-.35-3-3.83-6.59-3.39-10.79-2.25C203.48,331.61,200.64,333.45,197.29,332.77Z" transform="translate(-0.58 -116.84)" style="fill:#f3d232"/><polygon points="195.35 216.74 195.24 216.52 195.51 216.55 195.35 216.74" style="fill:#f3d232"/><path d="M369.51,388c6.8,2.68,12.7,6.89,20.15,7.49a43.77,43.77,0,0,0,40.89-21.77,77.71,77.71,0,0,0,9.28-25c.59-3.18-.08-4.42-3.26-4.28-13.65.61-25.91-3.75-37.39-10.65-13.6-8.16-27.74-6.6-42.08-2.75-2.59.7-2.62,3-2.89,4.77-2.56,16.65.12,32.15,10.65,45.78.31.39.69.74,1,1.15,1.24,1.78,4.43,3.77,2.12,5.73-2.55,2.17-3.8-1.59-5.1-3.11-5.46-6.43-9.74-13.7-11.38-22-3.18-16.05-2.29-31.74,5.21-46.75,6.55-13.11,13.5-26,21.13-38.5,1.55-2.53,3.19-3.32,6.11-2.79q24.34,4.4,48.74,8.46c2.55.42,3.71,1.58,4.19,4.06,3.27,17,7,34,7,51.37,0,17.89-5.6,33.87-18.36,46.87-5.72,5.82-12.54,10.51-20.25,12.51-11.59,3-23.19,2.17-33.52-5.1A4.91,4.91,0,0,1,369.51,388Z" transform="translate(-0.58 -116.84)" style="fill:#f3d232"/><text transform="translate(106.13 519.39)" style="font-size:67.53802490234375px;fill:#fff;font-family:FreestyleScript-Regular, Freestyle Script">DRUNK DRIVING</text><path d="M137,702.51a20.23,20.23,0,0,1-5.06-.6,19.89,19.89,0,0,1-4.16-1.54,21.08,21.08,0,0,1-3.16-1.92,20.18,20.18,0,0,1-2.09-1.73l4-6.43c.52.47,1.16,1,1.89,1.56a21,21,0,0,0,2.48,1.66,14.1,14.1,0,0,0,3,1.29,11.05,11.05,0,0,0,3.4.51,7.82,7.82,0,0,0,3-.52,4.52,4.52,0,0,0,2-1.57,4.41,4.41,0,0,0,.75-2.62,4.56,4.56,0,0,0-.61-2.4,6.19,6.19,0,0,0-1.77-1.81,19.93,19.93,0,0,0-2.86-1.58c-1.13-.52-2.41-1.09-3.85-1.72a24.86,24.86,0,0,1-3.06-1.64,12.82,12.82,0,0,1-2.58-2.15,9.76,9.76,0,0,1-1.79-2.77,8.76,8.76,0,0,1-.66-3.47,10.93,10.93,0,0,1,.91-4.37,11.62,11.62,0,0,1,2.61-3.72,12.52,12.52,0,0,1,4-2.59,13.55,13.55,0,0,1,5.19-1,16.53,16.53,0,0,1,4.33.58,20.92,20.92,0,0,1,4,1.51,15,15,0,0,1,3.18,2l-3.24,6.09a15.18,15.18,0,0,0-2.34-1.58,13.9,13.9,0,0,0-2.78-1.15,10.55,10.55,0,0,0-3-.43,6.33,6.33,0,0,0-2.89.6,4.45,4.45,0,0,0-1.82,1.59,4.18,4.18,0,0,0-.62,2.22,3.23,3.23,0,0,0,.41,1.69,3.72,3.72,0,0,0,1.17,1.24,11.66,11.66,0,0,0,1.85,1c.72.31,1.51.64,2.38,1,1.85.79,3.53,1.56,5,2.33a18.89,18.89,0,0,1,3.86,2.56,9.6,9.6,0,0,1,2.46,3.26,10.66,10.66,0,0,1,.85,4.48,11,11,0,0,1-6.86,10.64A18.72,18.72,0,0,1,137,702.51Z" transform="translate(-0.58 -116.84)" style="fill:#231f20"/><path d="M159.61,701.74v-39.6h7.75v39.6Z" transform="translate(-0.58 -116.84)" style="fill:#231f20"/><path d="M173.14,701.74l3.94-39.6h8.28l9.43,24.77,9.46-24.77h8.28l3.93,39.6h-7.77l-2.47-25.63-9,24.65h-4.77l-9-24.65-2.45,25.63Z" transform="translate(-0.58 -116.84)" style="fill:#231f20"/><path d="M238.69,702.51q-7.44,0-11.25-3.75t-3.8-11.08v-27h7.75v24.79c0,3.34.57,5.75,1.72,7.21s3,2.2,5.58,2.2,4.45-.74,5.59-2.2,1.7-3.87,1.7-7.21V660.68h7.78v27q0,7.34-3.8,11.08T238.69,702.51Z" transform="translate(-0.58 -116.84)" style="fill:#231f20"/><path d="M263.26,701.74v-39.6H271v32.78h14.3v6.82Z" transform="translate(-0.58 -116.84)" style="fill:#231f20"/><path d="M288.92,701.74l15.89-39.6H312l15.91,39.6h-8.35l-3.39-9H300.66l-3.41,9Zm14.35-15.84h10.27l-5.13-13.25Z" transform="translate(-0.58 -116.84)" style="fill:#231f20"/><path d="M336.73,701.74V669h-10v-6.86h27.84V669H344.5v32.74Z" transform="translate(-0.58 -116.84)" style="fill:#231f20"/><path d="M381.85,702.51a19.16,19.16,0,0,1-7.78-1.59,19.88,19.88,0,0,1-6.36-4.4,21,21,0,0,1,0-29.11,20.07,20.07,0,0,1,6.36-4.41,19.92,19.92,0,0,1,15.55,0,19.85,19.85,0,0,1,6.36,4.41,21,21,0,0,1,0,29.11,19.66,19.66,0,0,1-6.36,4.4A19.08,19.08,0,0,1,381.85,702.51Zm0-7.49a10.93,10.93,0,0,0,8.34-3.67,12.3,12.3,0,0,0,2.42-4.15,16.58,16.58,0,0,0,0-10.48,12.35,12.35,0,0,0-2.42-4.14,11.42,11.42,0,0,0-13-2.71,10.9,10.9,0,0,0-3.68,2.71,12.5,12.5,0,0,0-2.41,4.14,16.58,16.58,0,0,0,0,10.48,12.45,12.45,0,0,0,2.41,4.15,10.9,10.9,0,0,0,3.68,2.71A11,11,0,0,0,381.85,695Z" transform="translate(-0.58 -116.84)" style="fill:#231f20"/><path d="M414.49,701.74v-39.6H428a16.29,16.29,0,0,1,7.06,1.42,10.51,10.51,0,0,1,4.63,4.1,12.23,12.23,0,0,1,1.63,6.48,13.07,13.07,0,0,1-1,5.33,11.06,11.06,0,0,1-3,4,12.85,12.85,0,0,1-4.76,2.43l13,15.82h-9.87l-11.45-14.93h-1.82v14.93Zm7.75-21.38h3.31a10.57,10.57,0,0,0,4.11-.72,5.63,5.63,0,0,0,2.59-2.07,5.73,5.73,0,0,0,.89-3.24,5.31,5.31,0,0,0-2-4.41,8.87,8.87,0,0,0-5.62-1.56h-3.31Z" transform="translate(-0.58 -116.84)" style="fill:#231f20"/></svg>