<svg id="Layer_1" data-name="Layer 1" xmlns="http://www.w3.org/2000/svg" viewBox="0 0 406.4 406.6"><title>steering</title><path d="M297.64,304c-112.2,0-203.2,91-203.2,203.3s91,203.3,203.2,203.3,203.2-91,203.2-203.3S409.84,304,297.64,304Zm0,366.2c-89.9,0-162.8-72.9-162.8-162.9s72.9-162.9,162.8-162.9,162.8,72.9,162.8,162.9S387.54,670.2,297.64,670.2Z" transform="translate(-94.44 -304)" style="fill:#595a5c"/><path d="M443.84,434.5s12.6,50-14.3,44.8c-26.4-5.1-67.8-21-129.8-23.3v-.1a12.75,12.75,0,0,0-2,.1c-.7,0-1.4-.1-2-.1v.1c-62.1,2.3-103.4,18.2-129.8,23.3-27,5.2-14.3-44.8-14.3-44.8-62.5,36.1-10.4,134.4-10.4,134.4,5.2-24.4,14.8-22.5,45.8-8.3,51.6,23.6,74.2,137.6,74.2,137.6h72.7s22.6-114,74.2-137.6c31-14.2,40.6-16.1,45.8,8.3C453.94,568.9,506.14,470.6,443.84,434.5Z" transform="translate(-94.44 -304)" style="fill:#a8aaad"/><path d="M382.74,481.6c-1.4-26.4-52.7-35.8-83-36.6v-.1h-4.2v.1c-30.3.8-81.7,10.2-83,36.6-1.6,31.3-2.1,111.3,83,113.9h4.2C384.84,592.9,384.34,512.9,382.74,481.6Z" transform="translate(-94.44 -304)" style="fill:#424143"/><path d="M388.34,501.7s5.7,34.2,17.4,34.2h28.8c6.3,0,11.4-5.5,11.4-12.3,0,0-5.1-17-10.3-26.5a8.29,8.29,0,0,0-7.2-4.5h-31.6C392.14,492.6,388.34,496.7,388.34,501.7Z" transform="translate(-94.44 -304)" style="fill:#424143"/><path d="M206.94,501.7s-5.7,34.2-17.4,34.2h-28.8c-6.3,0-11.4-5.5-11.4-12.3,0,0,5.1-17,10.3-26.5a8.29,8.29,0,0,1,7.2-4.5h31.6C203.14,492.6,206.94,496.7,206.94,501.7Z" transform="translate(-94.44 -304)" style="fill:#424143"/></svg>